<?xml version="1.0" encoding="utf-8"?>
<!-- Generator: Adobe Illustrator 26.3.1, SVG Export Plug-In . SVG Version: 6.00 Build 0)  -->
<svg version="1.1" id="Layer_1" xmlns="http://www.w3.org/2000/svg" xmlns:xlink="http://www.w3.org/1999/xlink" x="0px" y="0px"
	 viewBox="0 0 197 40" style="enable-background:new 0 0 197 40;" xml:space="preserve">
<style type="text/css">
	.st0{fill:#9D9FA2;}
	.st1{enable-background:new    ;}
	.st2{fill:#E0E0E0;}
	.st3{fill:#FFFFFF;}
	.st4{fill:#FF4E4B;}
	.st5{fill:#FF929B;}
</style>
<g>
	<path class="st0" d="M83.5-37.2"/>
</g>
<g class="st1">
	<path d="M39.7,16.6h4.5v2.1c0.7-0.8,1.4-1.4,2-1.8c0.7-0.4,1.5-0.5,2.5-0.5c1.3,0,2.4,0.4,3.1,1.2c0.8,0.8,1.1,2,1.1,3.7v8h-4.9
		v-6.9c0-0.8-0.1-1.4-0.4-1.7c-0.3-0.3-0.7-0.5-1.2-0.5c-0.6,0-1.1,0.2-1.4,0.7c-0.4,0.4-0.5,1.2-0.5,2.4v6h-4.8V16.6z"/>
	<path d="M69.9,24.1h-9.7c0.1,0.8,0.3,1.4,0.6,1.7c0.5,0.5,1.1,0.8,1.8,0.8c0.5,0,0.9-0.1,1.4-0.4c0.3-0.2,0.5-0.4,0.8-0.8l4.8,0.4
		c-0.7,1.3-1.6,2.2-2.6,2.7c-1,0.5-2.5,0.8-4.4,0.8c-1.7,0-3-0.2-3.9-0.7c-1-0.5-1.7-1.2-2.4-2.2s-0.9-2.2-0.9-3.6
		c0-2,0.6-3.6,1.9-4.8c1.3-1.2,3-1.8,5.2-1.8c1.8,0,3.2,0.3,4.3,0.8c1,0.5,1.8,1.3,2.4,2.4s0.8,2.4,0.8,4V24.1z M65,21.8
		c-0.1-0.9-0.3-1.6-0.8-2c-0.4-0.4-0.9-0.6-1.6-0.6c-0.8,0-1.4,0.3-1.8,0.9c-0.3,0.4-0.5,0.9-0.6,1.7H65z"/>
	<path d="M85.4,29.2h-4.5v-2c-0.7,0.8-1.4,1.4-2,1.8c-0.7,0.4-1.5,0.5-2.5,0.5c-1.3,0-2.4-0.4-3.1-1.2c-0.8-0.8-1.1-2-1.1-3.7v-8
		h4.9v6.9c0,0.8,0.1,1.4,0.4,1.7s0.7,0.5,1.2,0.5c0.6,0,1-0.2,1.4-0.7c0.4-0.4,0.6-1.2,0.6-2.4v-6.1h4.8V29.2z"/>
	<path d="M88.3,16.6h4.5v2.1c0.4-0.9,0.9-1.5,1.3-1.8c0.5-0.3,1-0.5,1.7-0.5c0.7,0,1.5,0.2,2.3,0.7l-1.5,3.4c-0.6-0.2-1-0.4-1.4-0.4
		c-0.6,0-1.1,0.3-1.5,0.8c-0.5,0.7-0.7,2.1-0.7,4.1v4.2h-4.9V16.6z"/>
	<path d="M98.9,23c0-1.9,0.6-3.5,1.9-4.8c1.3-1.2,3-1.9,5.3-1.9c2.5,0,4.4,0.7,5.7,2.2c1,1.2,1.6,2.6,1.6,4.4c0,1.9-0.6,3.5-1.9,4.8
		c-1.3,1.2-3.1,1.9-5.3,1.9c-2,0-3.7-0.5-4.9-1.5C99.6,26.7,98.9,25,98.9,23z M103.7,23c0,1.1,0.2,2,0.7,2.5c0.5,0.5,1,0.8,1.7,0.8
		c0.7,0,1.3-0.3,1.7-0.8s0.7-1.4,0.7-2.6c0-1.1-0.2-1.9-0.7-2.4c-0.5-0.5-1-0.8-1.7-0.8c-0.7,0-1.3,0.3-1.7,0.8
		C104,21,103.7,21.9,103.7,23z"/>
	<path d="M115.7,16.6h4.5v2.1c0.7-0.8,1.4-1.4,2-1.8c0.7-0.4,1.5-0.5,2.5-0.5c1.3,0,2.4,0.4,3.1,1.2c0.8,0.8,1.1,2,1.1,3.7v8h-4.9
		v-6.9c0-0.8-0.1-1.4-0.4-1.7c-0.3-0.3-0.7-0.5-1.2-0.5c-0.6,0-1.1,0.2-1.4,0.7c-0.4,0.4-0.5,1.2-0.5,2.4v6h-4.8V16.6z"/>
	<path d="M145.9,24.1h-9.7c0.1,0.8,0.3,1.4,0.6,1.7c0.5,0.5,1.1,0.8,1.8,0.8c0.5,0,0.9-0.1,1.4-0.4c0.3-0.2,0.5-0.4,0.8-0.8l4.8,0.4
		c-0.7,1.3-1.6,2.2-2.6,2.7c-1,0.5-2.5,0.8-4.4,0.8c-1.7,0-3-0.2-3.9-0.7c-1-0.5-1.8-1.2-2.4-2.2c-0.6-1-0.9-2.2-0.9-3.6
		c0-2,0.6-3.6,1.9-4.8s3-1.8,5.2-1.8c1.8,0,3.2,0.3,4.3,0.8c1,0.5,1.8,1.3,2.4,2.4c0.5,1,0.8,2.4,0.8,4V24.1z M141,21.8
		c-0.1-0.9-0.3-1.6-0.8-2c-0.4-0.4-0.9-0.6-1.6-0.6c-0.8,0-1.4,0.3-1.8,0.9c-0.3,0.4-0.5,0.9-0.6,1.7H141z"/>
	<path d="M161.4,29.2h-4.5v-2c-0.7,0.8-1.4,1.4-2,1.8c-0.7,0.4-1.5,0.5-2.5,0.5c-1.3,0-2.4-0.4-3.1-1.2c-0.8-0.8-1.1-2-1.1-3.7v-8
		h4.9v6.9c0,0.8,0.1,1.4,0.4,1.7c0.3,0.3,0.7,0.5,1.2,0.5c0.6,0,1-0.2,1.4-0.7c0.4-0.4,0.6-1.2,0.6-2.4v-6.1h4.8V29.2z"/>
	<path d="M164.3,16.6h4.5v2.1c0.4-0.9,0.9-1.5,1.3-1.8c0.5-0.3,1-0.5,1.7-0.5c0.7,0,1.5,0.2,2.3,0.7l-1.5,3.4
		c-0.6-0.2-1-0.4-1.4-0.4c-0.6,0-1.1,0.3-1.5,0.8c-0.5,0.7-0.7,2.1-0.7,4.1v4.2h-4.9V16.6z"/>
	<path d="M179.9,20.7l-4.6-0.5c0.2-0.8,0.4-1.4,0.8-1.9s0.8-0.9,1.4-1.2c0.4-0.2,1.1-0.4,1.8-0.6c0.8-0.1,1.6-0.2,2.5-0.2
		c1.4,0,2.6,0.1,3.5,0.2s1.6,0.5,2.2,1c0.4,0.4,0.7,0.9,1,1.5s0.4,1.3,0.4,1.9v5.6c0,0.6,0,1.1,0.1,1.4s0.2,0.8,0.5,1.3h-4.5
		c-0.2-0.3-0.3-0.6-0.4-0.7c-0.1-0.2-0.1-0.4-0.2-0.8c-0.6,0.6-1.3,1-1.9,1.3c-0.9,0.3-1.8,0.5-3,0.5c-1.5,0-2.6-0.3-3.4-1
		c-0.8-0.7-1.2-1.6-1.2-2.6c0-1,0.3-1.7,0.8-2.4s1.6-1.1,3.1-1.4c1.8-0.4,3-0.6,3.5-0.8s1.1-0.3,1.7-0.6c0-0.6-0.1-1-0.4-1.2
		c-0.2-0.2-0.7-0.4-1.3-0.4c-0.8,0-1.4,0.1-1.8,0.4C180.3,19.8,180.1,20.2,179.9,20.7z M184.1,23.3c-0.7,0.2-1.4,0.4-2.1,0.6
		c-1,0.3-1.6,0.5-1.9,0.8c-0.3,0.3-0.4,0.6-0.4,0.9c0,0.4,0.1,0.7,0.4,0.9s0.7,0.4,1.2,0.4c0.5,0,1-0.1,1.5-0.4c0.5-0.3,0.8-0.6,1-1
		c0.2-0.4,0.3-0.9,0.3-1.5V23.3z"/>
	<path d="M191.9,11.9h4.8v17.4h-4.8V11.9z"/>
</g>
<g id="Layer_1-2">
	<g>
		<g>
			<g>
				<path class="st2" d="M32.6,20.4L32.6,20.4c0,0.1,0,0.2,0,0.2c-0.1,0.7-0.3,1.4-0.5,2.1c-0.6,1.9-1.7,3.6-3.1,4.9
					c-1.2,1.2-2.6,2.1-4.2,2.7c-0.7,0.3-1.4,0.5-2.1,0.6h0c-0.3,0.1-0.5,0.1-0.8,0.1c-0.1,0-0.2,0-0.3,0c-0.3,0-0.6,0-1,0
					c-0.1,0-0.2,0-0.3,0c-0.1,0-0.3,0-0.5,0c-0.1,0-0.1,0-0.2,0c-0.2,0-0.4,0-0.6-0.1c-0.1,0-0.2,0-0.3,0c0,0,0,0-0.1,0
					c-0.3,0-0.5-0.1-0.8-0.1c-0.1,0-0.2-0.1-0.3-0.1c-0.2,0-0.3-0.1-0.5-0.1c-0.1,0-0.1,0-0.2-0.1c-0.9-0.3-1.7-0.6-2.4-1
					c-0.1,0-0.2-0.1-0.2-0.1c-0.4-0.2-0.8-0.5-1.1-0.8c0,0-0.1-0.1-0.1-0.1c-0.2-0.2-0.5-0.4-0.7-0.6c-0.2-0.2-0.3-0.3-0.5-0.5
					c0,0-0.1-0.1-0.1-0.1c0,0-0.1-0.1-0.1-0.1c-0.1-0.1-0.2-0.2-0.3-0.3c-0.1-0.2-0.3-0.3-0.4-0.5c-0.9-1.1-1.5-2.3-2-3.7l0,0
					c-0.2-0.7-0.4-1.4-0.5-2.1c0,0,0,0,0,0c-0.2-1.1-0.2-2.3,0-3.5C9,13.1,11.6,9.7,15,8c1.2-0.6,2.5-1,3.9-1.2h0
					c1.1-0.1,2.1-0.1,3.3,0c4.1,0.6,7.4,3.1,9.1,6.5C32.4,15.4,32.9,17.8,32.6,20.4L32.6,20.4z"/>
				<path d="M20.5,31.6c-0.1,0-0.1,0-0.2,0c-0.1,0-0.3,0-0.5,0c-0.1,0-0.1,0-0.2,0c-0.2,0-0.4,0-0.6-0.1c-0.1,0-0.2,0-0.3,0l0,0
					c-0.3,0-0.5-0.1-0.8-0.1l-0.1,0c-0.1,0-0.2,0-0.2-0.1c-0.2,0-0.3-0.1-0.5-0.1c-0.1,0-0.2,0-0.2-0.1c-0.9-0.3-1.7-0.6-2.5-1.1
					c-0.1,0-0.2-0.1-0.3-0.2c-0.4-0.2-0.8-0.5-1.2-0.8c0,0-0.1-0.1-0.1-0.1c-0.2-0.2-0.5-0.4-0.7-0.6c-0.2-0.1-0.3-0.3-0.5-0.5
					c0,0-0.1-0.1-0.1-0.1l-0.1-0.1c0,0-0.1-0.1-0.1-0.1c-0.1-0.1-0.2-0.2-0.2-0.3l0,0c-0.1-0.2-0.3-0.3-0.4-0.5
					c-0.9-1.2-1.6-2.4-2.1-3.8c-0.2-0.7-0.4-1.4-0.5-2.1l0,0l0-0.2c-0.2-1.2-0.2-2.4,0-3.6C8.5,13,11,9.4,14.8,7.5
					c1.3-0.6,2.7-1.1,4.1-1.2l0,0c1.1-0.1,2.2-0.1,3.4,0c4.1,0.6,7.6,3.1,9.5,6.8c1.2,2.3,1.6,4.8,1.3,7.4c0,0.1,0,0.2,0,0.3
					c-0.1,0.7-0.3,1.5-0.5,2.2c-0.6,1.9-1.7,3.7-3.2,5.2c-1.3,1.2-2.7,2.2-4.3,2.8c-0.7,0.3-1.5,0.5-2.2,0.6l0,0
					c-0.3,0-0.5,0.1-0.8,0.1c-0.1,0-0.2,0-0.3,0c-0.3,0-0.7,0-1,0.1C20.6,31.6,20.6,31.6,20.5,31.6z M8.9,20.4L8.9,20.4l0,0.2
					c0.1,0.7,0.3,1.4,0.5,2c0.4,1.3,1.1,2.4,1.9,3.5c0.1,0.2,0.3,0.3,0.4,0.5l0,0c0.1,0.1,0.1,0.2,0.2,0.2c0,0,0.1,0.1,0.1,0.1
					c0,0,0.1,0.1,0.1,0.1l0.1,0.1c0.2,0.2,0.3,0.3,0.5,0.4c0.2,0.2,0.4,0.4,0.6,0.5c0,0,0.1,0.1,0.1,0.1c0.4,0.3,0.7,0.5,1.1,0.8
					c0.1,0.1,0.2,0.1,0.2,0.1c0.7,0.4,1.5,0.8,2.3,1c0.1,0,0.1,0,0.2,0.1c0.2,0,0.3,0.1,0.5,0.1c0.1,0,0.2,0,0.2,0.1l0.1,0
					c0.3,0.1,0.5,0.1,0.7,0.1l0.1,0c0.1,0,0.2,0,0.3,0c0.2,0,0.4,0,0.6,0.1c0.1,0,0.1,0,0.1,0l0,0c0.1,0,0.3,0,0.4,0
					c0.1,0,0.2,0,0.3,0c0.3,0,0.6,0,0.9,0c0.1,0,0.2,0,0.2,0c0.3,0,0.5-0.1,0.8-0.1l0.1,0c0.7-0.1,1.4-0.3,2-0.6
					c1.5-0.6,2.8-1.4,4-2.6c1.3-1.3,2.4-2.9,2.9-4.7c0.2-0.6,0.4-1.3,0.5-2c0-0.1,0-0.1,0-0.2l0,0c0.3-2.3-0.1-4.7-1.2-6.7
					c-1.7-3.4-5-5.7-8.7-6.2c-1-0.1-2.1-0.2-3.1,0l0,0c-1.3,0.2-2.5,0.6-3.7,1.1c-3.4,1.7-5.8,5-6.3,8.8C8.8,18.3,8.8,19.4,8.9,20.4
					z"/>
			</g>
			<g>
				<g>
					<path d="M31.9,16.6c-0.2-1.1-0.4-2.3-0.6-3.4c0-0.2,0-0.4,0-0.6c0-0.2,0.3-0.3,0.5-0.3c0.4,0,0.8,0.1,1.2,0
						c0.7,0,1.2,0.3,1.6,0.8c0.1,0.1,0.1,0.3,0.2,0.5c0.3,1.5,0.5,3.1,0.8,4.6c0.1,0.6-0.1,1.2-0.5,1.6c-0.1,0.1-0.3,0.3-0.5,0.3
						c-0.4,0.2-0.8,0.3-1.2,0.5c-0.4,0.2-0.7,0-0.8-0.5c-0.1-0.7-0.2-1.4-0.4-2.1C32.1,17.7,32,17.1,31.9,16.6L31.9,16.6L31.9,16.6z
						"/>
				</g>
				<g>
					<path d="M8.7,21.7c0.2,0.8,0.4,1.7,0.6,2.5c0.1,0.3,0,0.5-0.4,0.5c-0.3,0-0.6,0.1-1,0c-0.5,0-1-0.3-1.1-0.8
						c-0.3-1.1-0.5-2.3-0.8-3.4c-0.1-0.5,0.3-1.1,0.8-1.3c0.3-0.1,0.5-0.2,0.7-0.3c0.3-0.1,0.5,0,0.6,0.3C8.2,20,8.4,20.9,8.7,21.7
						L8.7,21.7z"/>
				</g>
			</g>
			<g>
				<g>
					<path d="M25.7,17.3c-0.6-1.7-1.7-2.6-2.9-3.1c-1.4-0.7-2.9-0.7-4.3-0.6c-0.7,0.2-1.4,0.3-2.1,0.5c-1.9,0.7-3.6,1.7-4.9,3.7
						c-0.5,0.8-0.9,1.9-1.1,2.9c-0.3,1.7,0.5,2.8,1.8,2.7c0.3,0,0.6-0.1,0.9-0.2c2.9-1.3,5.9-1.8,9.1-1.2c0.7,0.1,1.4,0,2-0.3
						C25.9,21.2,26.4,19.2,25.7,17.3z"/>
				</g>
				<g>
					<path class="st3" d="M21.5,17c0.9,0,1.5,0.7,1.5,1.5c0,0.8-0.5,1.5-1.4,1.5c-0.9,0-1.5-0.6-1.6-1.5C20,17.8,20.7,17,21.5,17
						L21.5,17z"/>
				</g>
				<g>
					<path class="st3" d="M13.5,19.3c0.6-0.2,1.1-0.1,1.6,0.2c0.2,0.1,0.4,0.3,0.5,0.6c0,0.2-0.1,0.4-0.2,0.4c0,0-0.1,0-0.1,0
						c-0.3,0.1-0.5,0-0.6-0.2c-0.2-0.2-0.8-0.3-1-0.1c-0.2,0.2-0.3,0.4-0.4,0.6c-0.1,0.3-0.3,0.4-0.6,0.4c-0.2,0-0.4-0.2-0.4-0.5
						c0-0.4,0.1-0.7,0.3-1C12.8,19.7,13.1,19.4,13.5,19.3L13.5,19.3z"/>
				</g>
			</g>
			<g>
				<path d="M14.2,8.2c0.2-0.8,0.9-1.4,1.6-1.9c0.3-0.2,0.9-0.2,0.8-0.9c-0.1-0.6-0.5-0.6-0.9-0.8c-1.1-0.5-1.6-1.6-1.3-2.7
					c0.3-1,1.4-1.7,2.5-1.5c1.1,0.2,1.9,1.2,1.9,2.4c0,0.6-0.3,1-0.6,1.4c-0.3,0.3-0.6,0.5-0.4,1c0.2,0.5,0.5,0.4,0.9,0.5
					c0.7,0.1,1.4,0.2,1.8,0.6L14.2,8.2L14.2,8.2z"/>
			</g>
			<g>
				<path class="st4" d="M17.1,2.5c0.1,0.3,0,0.7-0.3,1c-0.1,0.1-0.3,0.2-0.4,0.2c-0.7,0.1-1.1-0.2-1.3-0.8C15,2.2,15.4,1.7,16,1.6
					c0.3,0,0.6,0,0.8,0.2C17,2,17.1,2.2,17.1,2.5z"/>
			</g>
		</g>
		<g id="DxaKRF">
			<g>
				<g>
					<path d="M21.7,31.4c0-0.1-0.1-0.2-0.1-0.3c0,0,0,0,0,0c0-0.3,0-0.6-0.1-0.9c-0.1-0.2-0.2-0.3-0.2-0.5c0-0.1-0.1-0.2-0.1-0.2
						c-0.1-0.1-0.1-0.2-0.2-0.3c-0.2-0.4-0.4-0.8-0.6-1.1c-0.2-0.2-0.4-0.5-0.6-0.6c-0.2-0.1-0.3-0.3-0.5-0.4
						c-0.2-0.2-0.5-0.4-0.7-0.5c-0.2-0.1-0.3-0.2-0.5-0.2c-0.1,0-0.2,0-0.2-0.1c-0.1,0-0.1-0.1-0.2-0.1c-0.5-0.2-0.9-0.3-1.4-0.2
						c-0.3,0-0.5,0.1-0.8,0c-0.2,0-0.3,0-0.5,0c-0.1,0-0.1,0-0.1,0c-0.1-0.1-0.2-0.2-0.3-0.2c-0.3-0.1-0.6-0.1-0.8,0
						c-0.2,0-0.5,0.1-0.7,0.2c-0.1,0.1-0.2,0.1-0.4,0c-0.4,0-0.8,0-1.2,0.3c0,0-0.1,0.1-0.1,0.1c0,0.1-0.1,0.1-0.2,0.1
						c-0.1,0-0.1,0-0.2,0c-0.1,0-0.1,0-0.2,0c-0.7,0.1-1.3,0.5-1.8,1c-0.1,0.1-0.1,0.2-0.2,0.3c0,0.1-0.1,0.1-0.2,0.2
						c-0.4,0.2-0.8,0.6-1.1,0.9c-0.2,0.3-0.4,0.6-0.3,0.9c0,0,0,0.1-0.1,0.1C7,30.1,7,30.1,6.9,30.2c-0.2,0.3-0.4,0.7-0.4,1.1
						c0,0.1,0,0.1,0,0.2c0,0.1,0,0.3,0.1,0.4c0,0.1,0,0.1,0,0.2c-0.1,0.2-0.1,0.3-0.1,0.5c0,0.1,0,0.1,0,0.2c0,0,0,0,0,0.1
						c0,0.1,0,0.2,0.1,0.3c0.1,0.1,0.1,0.2,0.1,0.3c0,0,0,0.1,0,0.2c0,0.1-0.1,0.2-0.1,0.3c0,0,0,0,0,0.1c0,0.1,0,0.2,0.1,0.3
						c0,0.1,0.1,0.2,0.1,0.3c0.2,0.3,0.4,0.6,0.7,0.8l0,0c0.1,0.1,0.2,0.1,0.3,0.2c0.1,0.1,0.3,0.1,0.5,0c0.1,0,0.1,0,0.1,0
						c0.1,0.1,0.3,0.1,0.4,0c0.1,0,0.1,0,0.2,0c0,0,0.1,0.1,0.1,0.1c0.1,0.2,0.3,0.3,0.5,0.4c0.1,0,0.1,0.1,0.1,0.1
						c0.1,0.1,0.2,0.2,0.3,0.3c0.4,0.3,0.9,0.4,1.4,0.3c0.2,0,0.4-0.1,0.6-0.2c0,0.1,0.1,0.1,0.1,0.2c0.2,0.2,0.4,0.4,0.6,0.5
						c0.1,0,0.2,0.1,0.3,0c0.1,0,0.1,0,0.2,0c0.1,0.1,0.2,0.1,0.3,0.2c0.5,0.2,1,0.1,1.4-0.1c0.1,0,0.2-0.1,0.3,0c0,0,0.1,0,0.1,0
						c0.2,0,0.4,0,0.6,0c0.3-0.1,0.6-0.2,0.9-0.4c0,0,0.1,0,0.1,0c0.2,0.2,0.5,0.2,0.7,0.3c0.4,0,0.8-0.1,1.1-0.3
						c0.1-0.1,0.2-0.2,0.3-0.3c0,0,0,0,0.1-0.1c0.6-0.4,0.8-0.9,0.7-1.6c0,0,0-0.1,0-0.1c0.1-0.1,0.2-0.2,0.3-0.2
						c0.2-0.2,0.3-0.3,0.5-0.5c0.2-0.2,0.4-0.5,0.4-0.9c0,0,0-0.1,0.1-0.1c0.1-0.1,0.2-0.2,0.3-0.3c0,0,0,0,0,0
						c0.1-0.2,0.1-0.4,0.1-0.5C21.8,32,21.8,31.7,21.7,31.4L21.7,31.4z M20.9,29.9C20.9,29.9,20.9,29.8,20.9,29.9c0-0.1,0-0.1,0-0.1
						c0,0,0.1,0.1,0.1,0.1c0.1,0.2,0.2,0.5,0.3,0.7c0,0.1,0,0.2,0,0.3c0,0.1,0,0.1-0.1,0.1c-0.1,0-0.2-0.1-0.3-0.1
						c-0.1,0-0.2-0.1-0.1-0.2c0-0.1,0.1-0.2,0.1-0.3c0-0.1,0-0.1,0-0.2c0,0,0,0,0,0c0-0.1,0-0.1,0-0.2C20.9,30,20.9,29.9,20.9,29.9z
						 M8.7,35.3c-0.1,0-0.1,0-0.2,0c-0.2-0.1-0.4-0.3-0.2-0.6c0,0,0,0,0-0.1c-0.1,0.1-0.2,0.3-0.2,0.4c0,0.1,0,0.1,0,0.2
						c0,0.1-0.1,0.1-0.1,0.1c0,0-0.1,0-0.1-0.1c0,0-0.1,0-0.1-0.1c-0.1-0.1-0.3-0.2-0.4-0.3c-0.2-0.2-0.3-0.4-0.4-0.7l0,0l0,0
						c0,0,0-0.1,0-0.1c0,0,0,0,0-0.1c0,0,0-0.1,0-0.1c0-0.1,0-0.1,0-0.2c0-0.1,0-0.1,0.1,0c0.2,0.2,0.4,0.4,0.6,0.6
						c0,0,0,0.1,0.1,0.2c0,0,0-0.1,0-0.1c0-0.2,0-0.3-0.1-0.4c-0.1-0.2-0.3-0.3-0.4-0.5c-0.1-0.1-0.2-0.3-0.3-0.4c0,0,0-0.1-0.1-0.1
						c0,0,0-0.1,0-0.1c0,0,0,0,0-0.1c0,0,0,0,0,0l0,0c0,0,0-0.1,0-0.1c0-0.2,0.1-0.4,0.2-0.6C7,32,7,32,7,32c0.1-0.1,0.1-0.3,0-0.4
						C7,31.6,7,31.7,7,31.7c0,0-0.1,0.1-0.1,0.1c0,0-0.1-0.1-0.1-0.1c0-0.2,0-0.3,0-0.5c0-0.2,0.1-0.5,0.3-0.7
						c0.3-0.3,0.6-0.6,0.8-0.9c0,0,0.1-0.1,0.1-0.1c0,0.2,0,0.4,0,0.6c0-0.2,0.1-0.3,0.1-0.5c0,0,0-0.1,0-0.1c0-0.2-0.1-0.3-0.3-0.2
						c-0.1,0.1-0.3,0.2-0.4,0.3c0,0-0.1,0.1-0.1,0.1c0-0.1,0-0.2,0-0.3c0.1-0.1,0.2-0.3,0.3-0.4c0.2-0.2,0.4-0.4,0.6-0.6
						c0.2-0.2,0.5-0.3,0.8-0.3c0.1,0,0.1,0,0.2-0.1c0.2-0.1,0.2-0.2,0.2-0.4c0,0.1-0.1,0.1-0.1,0.2C9.4,28,9.2,28,9.1,28
						C9,28,9,27.9,9,27.9c0,0,0.1-0.1,0.1-0.1c0.5-0.4,1-0.8,1.6-0.9c0.1,0,0.2,0,0.3,0c0,0,0.1,0,0.1,0c0,0,0,0,0,0
						c0,0-0.1,0-0.1,0.1c-0.2,0.1-0.3,0.2-0.5,0.3c-0.1,0.1-0.2,0.2-0.3,0.3c0,0,0,0,0,0c0.2-0.2,0.4-0.2,0.6-0.3
						c0.1,0,0.2-0.1,0.3-0.1c0.1,0,0.1-0.1,0.2-0.1c0,0,0.1,0,0.1-0.1c0.1-0.1,0.3-0.1,0.4,0c0.1,0,0.1,0,0.2,0.1
						c0-0.1-0.1-0.1-0.2-0.2c-0.1,0-0.2-0.1-0.3-0.1c0.1,0,0.1-0.1,0.2-0.1c0.3-0.1,0.6-0.1,0.9-0.1c0.1,0,0.1,0,0.2,0.1
						c0.1,0.1,0.1,0.1,0,0.2c-0.1,0-0.2,0.1-0.3,0.1c0,0-0.1,0-0.1,0c0.1,0.1,0.2,0.1,0.3,0.1c0,0,0.1,0,0.1,0
						c0.2-0.1,0.5-0.2,0.7-0.2c0,0,0,0,0,0c0,0,0,0-0.1,0c-0.1,0-0.3-0.1-0.4-0.1c0,0-0.1,0-0.1-0.1c0,0,0.1-0.1,0.1-0.1
						c0.2-0.1,0.4-0.1,0.6-0.1c0.2,0,0.4,0,0.6,0c0.1,0,0.1,0.1,0.2,0.1c0,0-0.1,0.1-0.1,0.1c-0.2,0.1-0.4,0.2-0.6,0.3
						c-0.1,0-0.1,0-0.2,0.1c-0.2,0-0.3,0.1-0.5,0.2C13.1,27,13,27,12.8,27c-0.3,0.1-0.5,0.1-0.8,0.1c-0.2,0-0.3,0-0.5,0.1
						c0,0-0.1,0-0.1,0c0,0,0,0,0,0c0,0,0,0,0,0c0,0,0,0,0,0c0,0-0.1,0.1-0.1,0.1c0,0,0,0,0,0.1s0,0,0,0.1c0.1-0.1,0.2-0.2,0.4-0.2
						c0.1,0,0.2-0.1,0.2-0.1c0,0,0,0,0.1,0c-0.1,0.1-0.1,0.1-0.2,0.2c0,0,0,0,0,0c-0.1,0.1-0.1,0.1-0.2,0.2c0,0-0.1,0.1-0.1,0.1
						c-0.1,0.1-0.2,0.2-0.3,0.3c-0.1,0.1-0.2,0.2-0.4,0.2c-0.2,0-0.3,0.1-0.4,0.3c0,0,0.1,0,0.1,0c0.1,0,0.1-0.1,0.2,0
						c0,0,0,0.1-0.1,0.2c-0.2,0.2-0.3,0.4-0.5,0.5c0,0-0.1,0.1-0.1,0c0,0-0.1-0.1-0.1-0.1c0-0.2,0-0.4,0.2-0.6
						c0.1-0.1,0.2-0.2,0.3-0.3c0.1-0.1,0.2-0.3,0.3-0.4c0,0,0-0.1,0.1-0.2c0,0,0,0-0.1,0c-0.2,0.2-0.4,0.4-0.6,0.5
						c-0.2,0.2-0.3,0.4-0.4,0.6c0,0.1,0,0.1-0.1,0.1c-0.2,0.1-0.4,0.2-0.6,0.3c-0.1,0-0.1,0-0.2,0.1c0-0.1,0-0.1,0-0.2
						C9,29,9,28.9,9.1,28.8c0-0.1,0.1-0.1,0.2-0.1c0,0,0.1,0,0.1,0c-0.1-0.1-0.3-0.2-0.4-0.2c-0.3,0-0.5,0.2-0.7,0.4c0,0,0,0,0,0
						c0,0,0.1,0,0.1,0c0.1,0,0.2-0.1,0.3-0.1c0.1,0,0.2,0,0.2,0.2c0,0,0,0.1-0.1,0.1c0,0.1-0.1,0.2-0.1,0.3
						c-0.1,0.1-0.1,0.3-0.2,0.4c0,0.1-0.1,0.2-0.2,0.3c-0.1,0.2-0.1,0.4-0.1,0.5c0,0.1,0.1,0.2,0.1,0.3c0.1,0.2,0.1,0.3-0.1,0.4
						c-0.1,0.1-0.1,0.1-0.2,0.2c-0.2,0.1-0.2,0.3-0.2,0.5c0,0.1,0,0.2,0,0.2c0,0.1,0,0.1-0.1,0.2c-0.1,0.1-0.1,0.2-0.1,0.3
						c0.2-0.2,0.3-0.3,0.6-0.1c0,0,0,0,0,0c0,0,0-0.1-0.1-0.1c-0.3-0.3-0.2-0.7,0-0.9c0.1-0.1,0.1-0.1,0.2-0.2
						c0.1-0.1,0.1-0.3,0.1-0.4c0-0.1-0.1-0.2-0.1-0.3c-0.1-0.3-0.1-0.6,0.1-0.8c0.2-0.3,0.5-0.5,0.9-0.7c0.1-0.1,0.1-0.1,0.2,0.1
						c0,0.1,0.1,0.2,0.1,0.2c0,0.1,0,0.1,0,0.2c-0.2,0.2-0.4,0.4-0.6,0.6c-0.1,0.1-0.2,0-0.2-0.1c0-0.1,0-0.2,0.1-0.3
						c0-0.1,0-0.1,0.1-0.1c-0.1,0-0.3,0.2-0.3,0.3c0,0.1,0,0.3,0,0.4c0,0.1,0,0.2,0,0.3C9,31,9,31.1,8.9,31.3
						c-0.1,0.2-0.1,0.5-0.2,0.7c-0.1,0.3-0.2,0.6-0.2,0.9c0,0,0,0,0,0c-0.1,0.3-0.2,0.4-0.5,0.4c0,0-0.1,0-0.1,0c0,0,0,0,0,0
						c0,0-0.1,0-0.1,0c0,0,0,0-0.1,0c0,0-0.1,0-0.1,0C7.6,33,7.5,33,7.5,32.9c0-0.1-0.1-0.2-0.1-0.3c0-0.4,0-0.7,0.2-1.1
						c0.1-0.2,0.2-0.4,0.3-0.6c0.1-0.1,0.1-0.3,0.1-0.4c0,0,0-0.1,0-0.1c-0.1-0.1-0.1-0.2-0.2-0.2c-0.1,0-0.2,0.1-0.2,0.2
						c-0.1,0.1-0.1,0.3,0,0.4c0,0,0,0,0,0c0,0,0-0.1,0-0.1c0-0.1,0.1-0.1,0.1-0.2c0-0.1,0.1-0.1,0.2,0c0,0,0.1,0.1,0.1,0.1
						c0,0.1,0,0.2-0.1,0.3c-0.1,0.2-0.2,0.4-0.3,0.6c-0.2,0.4-0.3,0.8-0.2,1.2c0,0,0,0,0,0.1c0,0,0,0,0,0c0,0,0,0.1,0,0.1
						c0,0,0,0,0,0c0,0,0,0.1,0,0.1c0,0,0,0,0,0c0,0,0,0.1,0.1,0.1c0,0,0,0.1,0.1,0.1c0,0,0,0,0.1,0.1c0.1,0.1,0.2,0.1,0.3,0.1
						c0,0,0.1,0,0.1,0c0,0,0,0,0,0c0,0,0,0,0,0c0.1,0,0.2,0,0.3,0.1c0.1,0,0.2,0.2,0.2,0.3c0,0.1,0,0.1-0.1,0.1
						c-0.1,0-0.1-0.1-0.2-0.1c0,0-0.1,0-0.1,0c0,0,0,0-0.1,0c0,0,0,0,0,0c0,0,0,0,0,0c0,0,0,0,0,0c0,0,0,0,0,0c0,0,0,0,0,0
						c0.1,0,0.2,0,0.2,0c0,0,0,0,0,0c0,0,0.1,0,0.1,0c0,0,0,0,0.1,0c0.1,0.1,0.2,0.2,0.3,0.3c0.1,0.2,0.2,0.5,0.2,0.7c0,0,0,0,0,0.1
						C8.8,35.2,8.8,35.2,8.7,35.3L8.7,35.3z M11.9,36.2c0,0-0.1,0.1-0.1,0.1c-0.4,0.2-0.8,0.3-1.2,0.1c-0.2-0.1-0.3-0.1-0.5-0.2
						c-0.1,0-0.1-0.1-0.1-0.1c0-0.1,0.1-0.1,0.2-0.1c0.2,0.1,0.3,0.1,0.5,0.2c0.4,0.1,0.7,0,1.1-0.1c0,0,0.1,0,0.1,0
						C11.9,36.1,12,36.1,11.9,36.2C12,36.2,12,36.2,11.9,36.2L11.9,36.2z M15.8,37.2c-0.1,0-0.2,0-0.3-0.1c0.1-0.1,0.2-0.2,0.2-0.3
						c0,0,0.1-0.1,0.1-0.2c0.1-0.1,0.2-0.1,0.3-0.1c0.4,0,0.7-0.2,1-0.4c0.1,0,0.1-0.1,0.1-0.2c0-0.1,0.1-0.1,0.1-0.1
						c0.4,0,0.8-0.1,1.1-0.3c0.1-0.1,0.2-0.1,0.4-0.1c0,0,0.1,0,0.1,0c0,0,0,0.1,0,0.1c0,0.1-0.1,0.1-0.1,0.2
						c-0.3,0.3-0.6,0.6-1,0.8c-0.1,0-0.1,0-0.2,0.1c-0.1,0-0.1,0-0.1-0.1c0-0.1,0-0.2-0.1-0.3c0,0.1,0,0.1-0.1,0.2
						c0,0.1-0.1,0.2-0.1,0.2C16.8,36.8,16.4,37.1,15.8,37.2L15.8,37.2z M18.6,36.6c-0.1-0.1-0.2-0.1-0.4-0.2c0,0,0-0.1,0-0.1
						c0.1-0.1,0.2-0.1,0.3-0.2C18.6,36.2,18.6,36.4,18.6,36.6z M18.2,37c-0.3,0-0.5,0-0.8-0.1c0,0,0,0,0,0c-0.1,0-0.1-0.1,0-0.2
						c0-0.1,0.1-0.1,0.1,0C17.7,36.8,17.9,36.8,18.2,37C18.2,36.9,18.2,37,18.2,37L18.2,37z M18.5,36.9c-0.3-0.1-0.6-0.1-0.8-0.3
						c0,0,0,0,0,0c0.1-0.1,0.3-0.2,0.4-0.1c0.2,0.1,0.4,0.2,0.6,0.2c0,0,0,0,0.1,0C18.6,36.8,18.6,36.9,18.5,36.9L18.5,36.9z
						 M18.8,36.6C18.8,36.6,18.8,36.5,18.8,36.6c0-0.2-0.1-0.3-0.1-0.5c0-0.1,0-0.1,0-0.2c0,0,0.1-0.1,0.1-0.1
						c0,0.1,0.1,0.2,0.1,0.2c0,0.1,0,0.2,0,0.3C19,36.5,18.9,36.6,18.8,36.6z M19.2,36.4C19.2,36.4,19.1,36.4,19.2,36.4
						c0-0.1,0-0.2-0.1-0.3c0-0.1,0-0.2-0.1-0.3c0-0.1,0-0.1,0-0.1c0,0,0.1-0.1,0.1-0.1l0,0.1c0,0,0,0.1,0,0.1c0,0,0,0.1,0,0.1
						c0,0.1,0,0.2,0,0.3C19.3,36.3,19.2,36.3,19.2,36.4L19.2,36.4z M19.5,36.1c0,0,0-0.1,0-0.1c-0.1-0.2-0.1-0.3-0.2-0.5
						c0-0.1,0-0.1,0-0.2c0,0,0-0.1,0.1-0.1C19.5,35.4,19.6,35.9,19.5,36.1L19.5,36.1z M19.7,35.6L19.7,35.6
						c-0.1-0.2-0.1-0.3-0.2-0.5c0.1,0,0.2,0,0.2,0.1C19.7,35.4,19.7,35.5,19.7,35.6z M20.8,33.6c-0.1,0.2-0.2,0.4-0.4,0.6
						c0,0-0.1,0.1-0.1,0.1c-0.3,0.3-0.6,0.5-1,0.7c0,0,0,0,0,0c-0.1,0-0.1,0.1-0.2,0.1c-0.1,0-0.2,0-0.2-0.1c0,0,0-0.1,0-0.1
						c0.1-0.2,0.2-0.3,0.4-0.4c0.3-0.1,0.6-0.3,0.9-0.5c0.1-0.1,0.2-0.3,0.3-0.4c0,0,0-0.1,0-0.1c0,0,0,0,0,0c0,0-0.1,0.1-0.1,0.1
						c-0.2,0.2-0.3,0.3-0.5,0.5c-0.1,0.1-0.3,0.2-0.5,0.3c-0.1,0-0.2,0-0.2-0.1c0,0-0.1-0.1-0.1-0.1c-0.1-0.1-0.2-0.1-0.3-0.1
						c-0.1,0-0.2,0.1-0.3,0.2c0,0,0,0,0,0c0,0,0.1,0,0.1,0c0.2-0.1,0.4,0.1,0.3,0.3c-0.1,0.3-0.2,0.6-0.5,0.8
						c-0.2,0.2-0.4,0.3-0.7,0.3c-0.1,0-0.2,0-0.2,0c-0.1,0-0.2-0.1-0.1-0.2c0,0,0,0,0.1-0.1s0,0,0.1-0.1c0,0,0,0,0,0
						c0,0-0.1,0-0.1,0.1c-0.1,0.1-0.2,0.2-0.3,0.3c-0.1,0.1-0.1,0.1-0.2,0.2c-0.3,0.4-0.6,0.5-1,0.5c-0.3,0-0.5,0-0.8,0.1
						c-0.2,0-0.3,0.1-0.4,0.2c0.1,0,0.3-0.1,0.4-0.1c0.1,0,0.1,0,0.2,0c0.1,0,0.1,0.1,0.1,0.2c0,0.1-0.1,0.3-0.2,0.4
						c-0.2,0.2-0.5,0.3-0.8,0.3c-0.3,0-0.6,0-0.8-0.1c-0.2-0.1-0.4-0.3-0.6-0.6c0-0.1-0.1-0.1-0.1-0.2c-0.1,0.1-0.1,0.2-0.1,0.3
						c0,0.1,0.1,0.1,0.1,0.2c0,0,0,0.1,0,0.1c0,0-0.1,0-0.1,0c0,0,0,0,0,0c-0.4-0.3-0.6-0.6-0.6-1c0-0.2,0.1-0.2,0.2-0.2
						c0.2,0.1,0.5,0.3,0.7,0.3c0.2,0.1,0.5,0.1,0.7,0.1c0.1,0,0.2,0,0.2,0.1c0.1,0.1,0,0.2-0.1,0.3c-0.1,0-0.2,0.1-0.3,0.1
						c0,0-0.1,0-0.1,0c0.2,0.1,0.5,0.1,0.6-0.2c0,0,0-0.1,0-0.2c0-0.2,0-0.2,0.2-0.4c0.3-0.2,0.5-0.2,0.9-0.3c0.4,0,0.7-0.2,0.9-0.6
						c0,0,0-0.1,0-0.1c0,0,0,0,0,0c-0.1,0.1-0.1,0.1-0.2,0.2c-0.2,0.2-0.5,0.3-0.7,0.3c0,0-0.1,0-0.1,0c-0.1-0.1-0.1-0.2-0.1-0.3
						c0.1-0.1,0.1-0.2,0.2-0.2c0.2-0.1,0.4-0.2,0.5-0.4c0-0.1,0.1-0.1,0.2-0.1c0.2,0,0.4,0,0.6,0c0.3,0,0.6-0.1,0.9-0.2
						c0,0,0.1,0,0.1,0c0.1,0.1,0.2,0.1,0.3,0.2c0.1,0.1,0.1,0.2,0.1,0.3c0,0.1,0,0.1,0,0.2c0,0,0,0,0,0c0.2-0.2,0.1-0.5,0-0.6
						c-0.1-0.1-0.2-0.1-0.2-0.2c-0.1,0-0.1-0.1,0-0.2c0.1-0.2,0.2-0.3,0.4-0.4c0.2-0.1,0.4-0.2,0.5-0.3c0.2-0.1,0.3-0.1,0.5,0
						c0.1,0,0.1,0.1,0.2,0.2c0,0,0.1,0.1,0.1,0.2c0-0.1,0.1-0.2,0-0.3c-0.1-0.1-0.1-0.1-0.2-0.2c0.5-0.3,0.8-0.7,0.9-1.3
						c0,0,0,0,0,0c0,0,0,0.1,0,0.1c-0.2,0.3-0.4,0.6-0.7,0.9c-0.1,0.1-0.2,0.1-0.2,0.1c-0.1,0-0.1,0-0.1-0.1c0-0.1,0-0.1,0-0.2
						c0-0.1,0-0.2-0.1-0.2c0,0.1,0,0.1,0,0.2c-0.1,0.3-0.2,0.6-0.5,0.7c-0.1,0-0.1,0.1-0.2,0.1c-0.1,0.1-0.3,0-0.3-0.1
						c-0.1-0.1-0.1-0.2-0.2-0.4c0-0.1,0-0.1-0.1-0.2c0,0,0,0.1,0,0.1c0,0.2,0,0.3,0.1,0.5c0.1,0.3,0.1,0.5-0.2,0.7
						c-0.2,0.2-0.5,0.3-0.8,0.3c-0.2,0-0.3,0-0.5,0c-0.1,0-0.2-0.1-0.3-0.2c-0.1-0.4-0.3-0.7-0.4-1.1c0-0.1-0.1-0.2,0-0.3
						c0-0.1,0.1-0.1,0.2-0.2c0.1,0,0.1,0,0.2,0c-0.1-0.1-0.3-0.1-0.4-0.1c-0.1,0.1-0.2,0.1-0.2,0.3c0,0.2,0.1,0.4,0.1,0.5
						c0.1,0.2,0.2,0.3,0.3,0.5c0.2,0.4,0.1,0.7-0.2,1c-0.1,0.1-0.3,0.2-0.5,0.1c-0.2-0.1-0.4-0.1-0.6-0.1c-0.2,0-0.4,0.2-0.5,0.4
						c0,0.1,0,0.2,0,0.3c0,0,0,0,0,0c0,0,0,0,0-0.1c0-0.2,0.1-0.3,0.3-0.3c0.1,0,0.3,0,0.4,0c0.2,0,0.3,0.2,0.2,0.4
						c-0.2,0.4-0.5,0.6-0.9,0.6c-0.3,0-0.7,0-1-0.2c-0.1,0-0.2-0.1-0.3-0.2c0,0,0,0,0,0c0,0,0.1,0,0.1,0c0.1,0,0.2-0.1,0.3-0.1
						c0.4-0.1,0.5-0.6,0.3-0.9c-0.1-0.2-0.3-0.4-0.6-0.4c-0.2-0.1-0.4-0.1-0.6-0.1c-0.1,0-0.2-0.1-0.4-0.1c-0.1,0-0.1-0.1-0.1-0.2
						c0-0.1,0-0.2,0-0.3c0-0.1,0-0.1-0.1-0.2c0,0,0,0,0,0.1c0,0.2-0.1,0.3-0.3,0.3c-0.1,0-0.2,0-0.3,0H11c0,0,0,0,0,0
						c0.1,0,0.2,0.1,0.2,0.1c0.1,0,0.1,0,0.2,0.1c0.2,0.2,0.5,0.3,0.8,0.4c0.2,0.1,0.5,0.1,0.7,0.2c0.2,0.1,0.3,0.2,0.4,0.4
						c0,0.2,0,0.3-0.2,0.4c-0.1,0.1-0.3,0.1-0.4,0.1c-0.1,0-0.1,0-0.1-0.1c0-0.1,0-0.1,0-0.2c0-0.1,0-0.1-0.1-0.2
						c0,0.1,0,0.2-0.1,0.2c-0.1,0.4-0.4,0.6-0.7,0.8c-0.4,0.2-1.2,0.2-1.5-0.1c-0.1-0.1-0.3-0.3-0.3-0.4c0-0.1,0-0.2,0.1-0.2
						c0.1-0.1,0.1-0.1,0.2-0.2c-0.1,0-0.3,0-0.4,0c-0.1,0-0.2-0.1-0.4-0.2c0,0,0,0.1,0,0.1c0,0.1,0.1,0.1,0.1,0.2
						c0.1,0.1,0.1,0.2,0.2,0.3c0,0.1,0.1,0.2,0.1,0.3c0,0,0,0.1,0,0.1c0,0-0.1,0-0.1,0c0,0-0.1,0-0.1-0.1c-0.4-0.3-0.7-0.7-0.8-1.3
						c0-0.1,0-0.1,0.1-0.2c0,0,0.1-0.1,0.1,0c0.1,0,0.1,0.1,0.2,0.1c0.2,0.1,0.4,0.1,0.6,0c0.2-0.1,0.4-0.1,0.5,0
						c0.2,0.1,0.4,0.2,0.5,0.3c0.2,0.2,0.4,0.4,0.2,0.6c0.2-0.1,0.3-0.3,0.2-0.5c-0.1-0.1-0.2-0.2-0.3-0.3c-0.2-0.1-0.3-0.2-0.5-0.3
						c-0.1,0-0.1-0.1-0.2-0.1c-0.3-0.2-0.3-0.6-0.1-0.8c0.1-0.2,0.3-0.4,0.5-0.5c0.2-0.1,0.4-0.3,0.7-0.3c0.2-0.1,0.4,0,0.5,0.2
						c0.1,0.1,0.2,0.2,0.2,0.4c0.1,0.1,0.1,0.2,0.2,0.4c0,0,0.1,0.1,0.1,0.1c0.1,0.1,0.2,0.1,0.3,0.1c0.1,0,0.2-0.1,0.2-0.1
						c0.2-0.1,0.3-0.2,0.5-0.2c0-0.1-0.1-0.1-0.2-0.1c-0.1,0-0.2,0.1-0.3,0.1c-0.1,0-0.2,0.1-0.2,0.1c-0.1,0.1-0.2,0-0.3-0.1
						c-0.1-0.1-0.1-0.2-0.2-0.3c-0.1-0.2-0.2-0.4-0.3-0.6c0,0,0-0.1,0-0.1c0.1-0.1,0.1-0.2,0.1-0.4c0,0,0,0.1-0.1,0.1
						c-0.1,0.1-0.1,0.1-0.2,0.2c-0.1,0.1-0.1,0.1-0.2,0c-0.1-0.1-0.3-0.1-0.4,0c-0.1,0-0.1,0.1-0.2,0.1c-0.1,0-0.1,0-0.1-0.1
						c0-0.1,0-0.1,0-0.2c0-0.1-0.1-0.2-0.1-0.3c0,0,0,0.1,0,0.1c0,0.1,0,0.2,0,0.2c0,0.2-0.1,0.4-0.3,0.6c-0.1,0.1-0.3,0.2-0.4,0.4
						c-0.2,0.2-0.3,0.4-0.2,0.7c0,0.1,0,0.2-0.1,0.3c-0.1,0.1-0.3,0.1-0.4,0c-0.3-0.1-0.6-0.5-0.6-0.9c0-0.4,0.1-0.7,0.3-1.1
						c0.2-0.4,0.5-0.8,0.9-1.1c0.2-0.1,0.4-0.2,0.6-0.2c0,0,0.1,0,0.1,0c0,0,0,0.1-0.1,0.1c-0.3,0.3-0.6,0.7-0.9,1
						c-0.3,0.3-0.5,0.7-0.4,1.1c0,0.1,0,0.1,0,0.1c0,0,0,0,0,0c0-0.1,0-0.1,0-0.2c0-0.4,0.2-0.8,0.6-1c0.1-0.1,0.2-0.2,0.3-0.3
						c0.1-0.1,0.2-0.3,0.4-0.4c0.2-0.3,0.7-0.3,1-0.2c0.1,0.1,0.2,0.2,0.3,0.3c0.1,0.2,0.2,0.4,0.4,0.6c0.1,0.1,0.1,0.2,0.2,0.3
						c0,0.1,0,0.2,0.1,0.3c0,0,0-0.1,0.1-0.1c0.1-0.1,0-0.3,0-0.4c-0.1-0.1-0.2-0.2-0.2-0.4c-0.1-0.2-0.2-0.3-0.2-0.5
						c0-0.2,0.2-0.6,0.4-0.7c0.1,0,0.2,0,0.3,0c0.3,0.1,0.5,0.3,0.6,0.6c0,0,0,0.1,0.1,0.1c0,0,0,0,0,0c0-0.1,0-0.2,0-0.3
						c-0.1-0.3-0.4-0.6-0.8-0.6c0,0-0.1,0-0.1,0c-0.1,0-0.1,0-0.1-0.1c0.2-0.3,0.4-0.5,0.8-0.6c0.3-0.1,0.7-0.1,1-0.2c0,0,0,0,0,0
						c0.1,0,0.3,0,0.4-0.1c0.2,0,0.5,0,0.7,0.2c0.2,0.2,0.4,0.3,0.6,0.6c0,0,0,0,0,0c0,0,0,0,0,0c0-0.1,0-0.1,0-0.2
						c0-0.1-0.1-0.2-0.2-0.2c-0.2-0.2-0.4-0.3-0.6-0.5c-0.3-0.2-0.3-0.2-0.2-0.5c0-0.3-0.1-0.5-0.3-0.6c-0.2-0.1-0.4-0.3-0.6-0.5
						c-0.1-0.1-0.2-0.2-0.3-0.2c0,0-0.1,0-0.2-0.1c0,0,0,0,0,0c0,0,0,0,0.1,0.1c0.1,0.1,0.1,0.2,0.2,0.2c0.1,0.2,0.3,0.4,0.5,0.5
						c0.1,0.1,0.2,0.1,0.2,0.2c0.1,0.1,0.1,0.2,0.1,0.4c-0.1,0.3-0.3,0.4-0.6,0.4c-0.1,0-0.2,0-0.2,0c-0.3,0.1-0.7,0.1-1,0.2
						c-0.1,0-0.1,0-0.2,0c-0.1-0.1-0.1-0.2,0-0.3c0.1-0.1,0.2-0.1,0.4-0.1c0,0,0.1,0,0.1,0c0,0,0,0,0,0c-0.1,0-0.1,0-0.2,0
						c-0.1,0-0.2,0-0.3,0c-0.2,0-0.3,0.1-0.3,0.3c0,0.1,0,0.2,0,0.3c0,0.2-0.1,0.3-0.2,0.4c-0.1,0.1-0.2,0.3-0.2,0.4
						c-0.1,0.1-0.1,0.2-0.2,0.3c-0.1,0.1-0.2,0.1-0.3,0.1c0-0.1,0.1-0.1,0.1-0.2c0.1-0.1,0.1-0.2,0-0.4c0,0,0,0,0-0.1
						c0,0,0,0.1,0,0.1c0,0,0,0.1,0,0.1c-0.2,0.3-0.4,0.4-0.8,0.4c-0.4-0.1-0.8,0-1.1,0.2c-0.1,0.1-0.2,0.1-0.2,0.2
						c-0.1,0.1-0.2,0.2-0.3,0.3c0,0-0.1,0-0.1,0c0,0,0-0.1,0-0.1c0-0.1,0.1-0.2,0.1-0.3c0.3-0.6,0.8-1.1,1.5-1.3
						c0.2-0.1,0.3-0.1,0.5-0.1c0,0,0.1,0,0.1,0.1c0,0,0,0.1-0.1,0.1c-0.1,0.1-0.2,0.1-0.2,0.1c-0.2,0.1-0.5,0.2-0.7,0.3
						c-0.1,0-0.1,0.1-0.2,0.1c0,0,0,0,0.1,0c0.3-0.1,0.6-0.2,1-0.3c0.4-0.1,0.4-0.3,0.3-0.6c0,0,0-0.1,0-0.1c-0.1-0.1,0-0.2,0.1-0.3
						c0.1-0.1,0.2-0.2,0.4-0.2c0.3-0.1,0.6-0.2,1-0.1c0,0,0.1,0,0.1,0c0,0,0,0,0-0.1c0,0,0,0,0,0c0,0-0.1,0-0.1,0
						c-0.1,0-0.2-0.1-0.3-0.2c-0.3-0.2-0.8-0.2-1,0c0,0,0,0-0.1,0.1c0,0,0.1,0,0.1,0c0.1,0,0.3-0.1,0.4-0.1c0.1,0,0.2,0,0.3,0.1
						c0.1,0,0.1,0.1,0,0.1c-0.1,0.1-0.2,0.1-0.3,0.1c-0.1,0.1-0.3,0.1-0.4,0.2c0,0-0.1,0-0.1,0.1c-0.2,0.1-0.2,0.3-0.2,0.5
						c0,0,0,0,0,0c-0.2,0.1-0.4,0.1-0.6,0.2c-0.2,0.1-0.4,0.2-0.6,0.2c0,0,0-0.1,0-0.1c0.1-0.3,0.3-0.6,0.6-0.8
						c0.1-0.1,0.3-0.1,0.4,0c0,0,0,0,0.1,0c0,0,0,0,0,0c0,0-0.1-0.1-0.1-0.1c-0.1-0.1-0.2-0.1-0.1-0.2c0.3-0.3,0.7-0.6,1.1-0.6
						c0,0,0.1,0,0.1,0c0,0,0.1,0,0.1,0c0,0,0.1,0,0.1,0l0,0c0,0-0.1-0.1-0.1-0.1c-0.1,0-0.2-0.1-0.3-0.1c-0.1,0-0.1-0.1,0-0.1
						c0.2-0.2,0.4-0.3,0.7-0.3c0.1,0,0.1,0,0.1,0.1c0.1,0.1,0.1,0.2,0.2,0.4c0.1,0.2,0.3,0.4,0.4,0.5c0,0,0,0,0,0
						c0-0.1,0-0.3-0.1-0.4c-0.1-0.1-0.1-0.2-0.2-0.3c-0.2-0.3-0.2-0.5,0.1-0.7c0.2-0.1,0.4-0.1,0.6-0.1c0.5,0,0.9,0.2,1.3,0.5
						c0,0,0.1,0.1,0.1,0.1c0.2,0.2,0.3,0.4,0.2,0.7c0,0,0,0.1,0,0.1c0.1,0,0.1-0.1,0.2-0.2c0.1-0.2,0.1-0.1,0.2,0
						c0.2,0.3,0.4,0.5,0.6,0.7c0.1,0.1,0.3,0.2,0.3,0.4c0.1,0.1,0,0.2,0,0.3c0,0-0.1,0-0.1,0c-0.3-0.1-0.6-0.3-0.8-0.6
						c0,0,0,0-0.1,0c0,0,0,0,0,0c0,0.1,0.1,0.3,0.2,0.3c0.1,0.1,0.3,0.2,0.4,0.3c0.1,0.1,0.2,0.1,0.3,0.2c0.1,0.1,0.1,0.2,0.1,0.3
						c0,0.2-0.1,0.4-0.1,0.6c0,0,0,0,0,0c0,0.1,0,0.3,0.1,0.4c0.1,0.4,0.1,0.7-0.2,0.9c0.1,0,0.3,0,0.4-0.2c0,0,0.1-0.1,0.1-0.1
						c0,0,0.1-0.1,0.1,0c0.3,0.3,0.6,0.5,0.9,0.9c0,0.1,0,0.1,0.1,0.2c0,0.1,0,0.1,0,0.2c0,0,0,0,0-0.1c0.1-0.2,0.1-0.4,0-0.5
						c-0.1-0.1-0.2-0.2-0.3-0.3c-0.2-0.2-0.4-0.4-0.6-0.6c-0.2-0.2-0.3-0.4-0.3-0.7c0-0.1,0-0.2,0-0.3c0-0.3,0.1-0.6,0.1-0.8
						c0-0.3-0.1-0.5-0.2-0.7c-0.1-0.1-0.2-0.2-0.2-0.3c-0.1-0.2-0.1-0.3,0-0.4c0.1,0,0.1-0.1,0.2-0.1c0,0,0.1,0,0.1-0.1
						c0,0-0.1,0-0.1,0c-0.1,0-0.3,0-0.4,0.1c0,0,0,0,0,0c-0.2,0.1-0.3,0.1-0.4,0c-0.1-0.2-0.3-0.3-0.5-0.5c0,0,0,0,0,0
						c-0.1-0.1-0.1-0.2,0-0.3c0.2-0.1,0.3-0.1,0.5-0.2c0.2-0.1,0.5,0,0.7,0.1c0.4,0.2,0.7,0.6,0.8,1c0.1,0.2,0.1,0.3,0,0.5
						c0,0.1-0.1,0.3-0.1,0.4c0,0.1,0,0.1,0,0.2c0,0.1,0.1,0.1,0.1,0.2c0,0,0,0,0,0c0,0,0-0.1,0-0.1c0-0.1,0-0.1,0-0.2
						c0-0.1,0.1-0.1,0.1,0c0,0,0,0,0.1,0.1c0.2,0.2,0.3,0.5,0.3,0.8c0,0.1,0,0.2-0.1,0.3c0,0-0.1,0-0.1,0c-0.1-0.1-0.2-0.1-0.4-0.2
						c-0.1,0-0.2,0-0.3,0.1c-0.1,0.1-0.1,0.3,0.1,0.5c0,0,0.1,0.1,0.1,0.1c0,0,0.1,0.1,0.1,0.1c0.2,0.2,0.3,0.4,0.5,0.5
						c0,0,0,0,0-0.1c0-0.2-0.1-0.3-0.2-0.5c0,0,0,0,0,0c-0.1-0.1-0.2-0.2-0.3-0.3c0,0-0.1-0.1-0.1-0.2c0-0.1,0-0.1,0.1-0.1
						c0,0,0.1,0,0.1,0c0.4,0.2,0.7,0.4,0.9,0.7c0.1,0.1,0.2,0.3,0.3,0.4c0.1,0.2,0.1,0.3,0.2,0.5c0,0,0,0.1,0,0.1c0,0,0,0,0,0
						c0.1-0.2,0.1-0.3,0.1-0.5c0-0.2-0.1-0.4-0.2-0.5c0,0,0-0.1-0.1-0.1c-0.1-0.1-0.3-0.3-0.4-0.4c-0.1-0.1-0.1-0.2-0.1-0.4
						c0.1-0.4,0-0.7-0.2-1c-0.1-0.1-0.2-0.2-0.2-0.3c-0.1-0.1-0.1-0.2,0-0.3c0.1-0.2,0-0.3,0-0.5c0-0.1-0.1-0.2-0.1-0.2
						c-0.1-0.1,0-0.2,0.1-0.2c0.2,0,0.4,0,0.6,0.1c0,0,0.1,0,0.1,0c0,0,0,0,0,0c0,0-0.1,0-0.1-0.1c-0.2-0.2-0.5-0.2-0.8-0.2
						c-0.2,0-0.3,0-0.4-0.2c-0.1-0.1-0.1-0.3-0.2-0.4c0-0.1-0.1-0.2-0.2-0.2c0,0,0,0-0.1,0c0,0,0.1,0.1,0.1,0.1
						c0,0.1,0.1,0.1,0.1,0.2c0,0,0,0.1,0,0.1c0,0-0.1,0-0.1,0c-0.4-0.3-0.7-0.3-1.1-0.1c-0.1,0.1-0.3,0.1-0.4,0.2
						c-0.1,0-0.1,0-0.2,0C15.2,27,15,27,14.9,26.9c-0.2-0.1-0.5-0.2-0.7-0.2c0.2-0.2,1.4-0.4,1.5-0.2c0,0-0.1,0.1-0.1,0.1
						c-0.1,0-0.2,0.1-0.3,0.1c0,0-0.1,0.1-0.1,0.1l0,0c0,0,0.1,0,0.1,0c0.2,0,0.3-0.1,0.5-0.1c0.1,0,0.1-0.1,0.1-0.2
						c0-0.1,0-0.1,0.1-0.1c0.2,0,0.5,0,0.7,0c0.3,0,0.5,0.1,0.8,0.3c0,0,0.1,0,0.1,0.1c0.1,0.1,0.1,0.2,0.1,0.3c0,0,0,0,0,0.1
						c0,0,0,0,0.1,0c0,0,0.1-0.1,0.1-0.1c0.1-0.2,0.1-0.2,0.3-0.1c0.3,0.2,0.6,0.4,0.8,0.7c0.2,0.3,0.2,0.4-0.1,0.7
						c-0.1,0.1-0.3,0.2-0.4,0.2c-0.1,0.1-0.2,0.2-0.1,0.3c0,0,0,0,0,0c0.1-0.2,0.3-0.3,0.4-0.3c0.1,0,0.2-0.1,0.3-0.2
						c0.1-0.1,0.2-0.2,0.2-0.3c0,0,0-0.1,0-0.1c0,0,0.1,0,0.1,0c0.2,0.2,0.4,0.4,0.5,0.5c0.2,0.3,0.4,0.6,0.6,0.9
						c0,0.1,0.1,0.2,0.1,0.3c0,0.1,0,0.1-0.1,0c-0.2-0.2-0.5-0.4-0.6-0.7c-0.1-0.2-0.2-0.4-0.5-0.6c0,0-0.1,0-0.1,0
						c0,0,0,0.1,0.1,0.1c0.1,0.1,0.2,0.3,0.2,0.4c0,0,0,0.1,0,0.1c0,0-0.1,0-0.1,0c-0.2,0-0.3-0.1-0.5-0.1c-0.1,0-0.2,0-0.3,0
						c-0.1,0-0.2,0.1-0.1,0.3c0,0.1,0.1,0.2,0.2,0.2c0,0,0-0.1,0-0.1c0-0.1,0-0.2,0.2-0.2c0.1,0,0.1,0,0.2,0c0.5,0.2,0.9,0.5,1.2,1
						c0.1,0.2,0.1,0.4,0,0.6c0,0,0,0.1-0.1,0.1c-0.1,0.1-0.1,0.1-0.2,0c0,0,0-0.1-0.1-0.1c-0.1,0.2,0,0.4,0.1,0.5c0,0,0,0,0,0
						c0,0,0,0,0,0c0.1,0.1,0.1,0.1,0.2,0.2c0.1,0.1,0.1,0.3,0.1,0.6c0,0.1-0.1,0.3-0.2,0.4c0,0,0,0.1,0,0.1
						c-0.1,0.2-0.2,0.3-0.3,0.5c-0.1,0.2-0.1,0.3-0.1,0.5c0,0,0,0,0,0.1c0-0.1,0-0.1,0-0.1c0.1-0.2,0.2-0.3,0.3-0.5
						c0.1-0.2,0.3-0.1,0.4,0C21,33,21,33.3,20.8,33.6L20.8,33.6z M21.3,32.8C21.3,32.8,21.3,32.8,21.3,32.8
						C21.3,32.8,21.3,32.8,21.3,32.8c-0.1,0.1-0.1,0.1-0.2,0.1c0,0-0.1-0.1-0.1-0.1c0-0.1-0.1-0.1-0.1-0.2c0,0,0,0-0.1-0.1
						c-0.1-0.1-0.2-0.2-0.1-0.4c0.1-0.2,0.1-0.4,0.1-0.7c0-0.1,0-0.2,0-0.3c0.1,0,0.3,0.1,0.3,0.2c0.1,0.1,0.2,0.3,0.2,0.4
						C21.5,32.1,21.4,32.4,21.3,32.8C21.3,32.7,21.3,32.7,21.3,32.8C21.3,32.8,21.3,32.8,21.3,32.8z"/>
					<path d="M14.2,38.2c-0.3,0-0.5,0-0.7-0.1c-0.1,0-0.2-0.1-0.3-0.2c-0.2,0-0.3,0-0.5-0.1c-0.3-0.1-0.5-0.3-0.8-0.6
						c-0.1,0-0.2,0.1-0.3,0.1c-0.6,0.1-1.2,0-1.8-0.3c-0.2-0.1-0.3-0.3-0.4-0.4c-0.2-0.1-0.4-0.3-0.5-0.4c-0.1,0-0.3,0-0.4,0
						c-0.2,0.1-0.4,0.1-0.7,0l0,0l0,0c0,0,0,0-0.1,0c-0.1-0.1-0.3-0.1-0.4-0.2l0,0c-0.4-0.3-0.7-0.6-0.9-1c-0.1-0.1-0.1-0.2-0.2-0.3
						C6.1,34.3,6.1,34.1,6,34c0,0,0-0.1,0-0.1c0-0.1,0-0.3,0-0.4c0,0,0,0,0,0c0,0,0-0.1,0-0.1l0-0.1c-0.1-0.2-0.1-0.3-0.1-0.5
						c0,0,0-0.1,0-0.1l0,0c0,0,0-0.1,0-0.1c0-0.2,0-0.4,0.1-0.6c-0.1-0.2-0.1-0.4-0.1-0.5c0,0,0-0.1,0-0.1l0-0.1
						c0-0.5,0.2-0.9,0.6-1.4c0-0.1,0.1-0.1,0.1-0.1c0-0.4,0.2-0.8,0.4-1.1c0.3-0.3,0.6-0.8,1.2-1c0.1-0.2,0.2-0.3,0.3-0.4
						c0.6-0.6,1.3-1,2.1-1.2c0.1,0,0.2,0,0.3,0l0.1,0c0.1-0.1,0.1-0.1,0.2-0.1c0.4-0.2,0.9-0.4,1.5-0.3c0,0,0.1,0,0.1,0
						c0.3-0.2,0.6-0.2,0.9-0.2c0.4,0,0.7,0,1,0.1c0.2,0,0.3,0.1,0.4,0.2c0.1,0,0.2,0,0.4,0c0.2,0,0.4,0,0.6,0l0.1,0
						c0.6-0.1,1.2,0,1.7,0.3c0,0,0.1,0,0.1,0.1l0,0c0,0,0,0,0,0c0.3,0,0.6,0.1,0.8,0.3l0,0c0.2,0.2,0.5,0.3,0.7,0.6l0.1,0.1
						c0.1,0.1,0.2,0.2,0.3,0.2c0.3,0.2,0.5,0.5,0.7,0.7l0,0c0.3,0.4,0.6,0.8,0.7,1.2c0,0,0,0.1,0.1,0.1c0,0,0.1,0.1,0.1,0.1l0.1,0.2
						c0.1,0.1,0.2,0.3,0.3,0.5c0.1,0.3,0.2,0.6,0.2,0.9l0,0.1c0,0,0,0,0,0c0,0.1,0,0.1,0,0.2l0,0.1c0.1,0.4,0.2,0.8,0.1,1.2
						c0,0.2-0.1,0.4-0.1,0.6v0l0,0.1c-0.1,0.2-0.2,0.4-0.4,0.5c-0.1,0.3-0.3,0.6-0.5,0.9c-0.1,0.1-0.2,0.3-0.4,0.4l-0.1,0.1l0-0.1
						c0,0,0,0,0,0c0,0-0.1,0.1-0.1,0.1c0,0.6-0.1,1.3-1,1.9l0,0c-0.1,0.1-0.2,0.2-0.3,0.2c-0.4,0.4-0.9,0.5-1.5,0.5
						c-0.2,0-0.5-0.1-0.8-0.2c-0.2,0.1-0.5,0.2-0.7,0.3C16,38,15.7,38,15.4,38l0,0c0,0-0.1,0-0.1,0C14.9,38.1,14.6,38.2,14.2,38.2z
						 M13,37.9C13,37.9,13,37.9,13,37.9L13,37.9z M16.7,37.5C16.7,37.5,16.7,37.5,16.7,37.5C16.7,37.5,16.7,37.5,16.7,37.5z
						 M9.3,36.6C9.3,36.6,9.3,36.6,9.3,36.6C9.3,36.6,9.3,36.6,9.3,36.6z M13.9,36.6C13.9,36.6,13.9,36.6,13.9,36.6
						C13.9,36.6,13.9,36.6,13.9,36.6z M9.1,36.1C9.1,36.1,9,36.1,9.1,36.1C9,36.1,9.1,36.1,9.1,36.1z M8.2,36.1
						C8.2,36.1,8.2,36.1,8.2,36.1C8.2,36.1,8.2,36.1,8.2,36.1z M10.5,35.4C10.5,35.4,10.5,35.4,10.5,35.4
						C10.6,35.4,10.6,35.4,10.5,35.4l0.1-0.1L10.5,35.4z M14.5,35.3C14.5,35.3,14.5,35.3,14.5,35.3C14.5,35.3,14.5,35.3,14.5,35.3
						L14.5,35.3z M10.4,35.3C10.4,35.3,10.4,35.3,10.4,35.3C10.4,35.3,10.4,35.3,10.4,35.3z M10.9,35.1
						C10.9,35.2,10.9,35.2,10.9,35.1C10.9,35.2,10.9,35.2,10.9,35.1z M11.9,34.7c0,0.1,0.1,0.2,0.1,0.3c0,0,0,0,0-0.1l0-0.2
						C11.9,34.7,11.9,34.7,11.9,34.7z M13.5,33.9c0.1,0.1,0.3,0.2,0.4,0.4c0,0,0,0,0,0c0.1-0.1,0.3-0.1,0.5-0.1c0.3,0,0.5,0,0.8,0.1
						c0.1-0.1,0.1-0.2,0-0.3c-0.1-0.1-0.1-0.3-0.3-0.5c-0.1-0.2-0.2-0.5-0.2-0.7c0-0.2,0-0.6,0.4-0.8c0.2-0.1,0.5-0.1,0.7,0l0.5-0.4
						c0.1-0.1,0.1-0.1,0.1-0.3c0-0.1-0.1-0.2-0.1-0.3l-0.5-0.2l-0.1-0.1c0,0-0.1-0.1-0.1-0.1c-0.1-0.2-0.3-0.3-0.4-0.4
						c-0.1-0.1-0.2-0.1-0.3-0.1L14.6,30c0,0,0,0-0.1,0l-0.2,0c-0.2,0-0.4,0.1-0.7,0.1c0.2,0.2,0.3,0.4,0.4,0.6c0,0.1,0,0.2,0,0.3
						c0,0,0,0,0,0.1l0.1,0.6h-1l-0.2-0.4c0,0,0,0,0-0.1c-0.1-0.2-0.2-0.3-0.3-0.3c0,0-0.1,0.1-0.1,0.1c0,0.1,0.1,0.2,0.1,0.3
						l0.1,0.1c0.1,0.1,0.1,0.2,0.2,0.3c0.2,0.3,0.2,0.6,0.1,0.9l0,0c0,0,0,0,0,0c0,0,0.1,0,0.1,0c0.3-0.1,0.6,0.1,0.8,0.4l0.3,0.7
						L13.5,33.9C13.5,33.9,13.5,33.9,13.5,33.9z M16.4,33.9C16.4,33.9,16.4,33.9,16.4,33.9C16.4,33.9,16.4,33.9,16.4,33.9z
						 M13.5,33.8C13.5,33.8,13.5,33.8,13.5,33.8C13.5,33.8,13.5,33.8,13.5,33.8z M16.4,33.7c0.1,0,0.2,0,0.3,0
						c0.2,0,0.4-0.1,0.5-0.2c0,0,0,0,0,0c0,0,0,0,0,0c-0.1-0.2-0.1-0.5-0.1-0.8c0-0.1,0-0.2,0.1-0.2l0.1-0.2
						c-0.2,0.1-0.3,0.1-0.5,0.1l-0.2,0l0.4,0.5L16.1,33C16.2,33.2,16.3,33.5,16.4,33.7z M21.8,33.5C21.8,33.5,21.8,33.5,21.8,33.5
						C21.8,33.5,21.8,33.5,21.8,33.5z M6,32.1C6,32.1,6,32.1,6,32.1C6,32.1,6,32.1,6,32.1z M11.2,31.5c0.1,0.1,0.2,0.2,0.2,0.3
						c0.1,0,0.1,0,0.2,0c0-0.1-0.1-0.1-0.1-0.2c0,0,0-0.1,0-0.1C11.4,31.5,11.3,31.5,11.2,31.5z M19.1,30.2c0.2,0.2,0.3,0.3,0.4,0.4
						c0,0,0.1,0.1,0.1,0.1c0.1,0.2,0.2,0.3,0.3,0.5l0-0.1c-0.1-0.2-0.2-0.4-0.1-0.8l0.1-0.4c-0.1-0.1-0.1-0.1-0.2-0.2l0.1,0.4
						l-0.6-0.2C19.1,30,19.1,30.1,19.1,30.2z M12.8,31L12.8,31L12.8,31z M6.6,29.9C6.6,29.9,6.6,29.9,6.6,29.9
						C6.6,29.9,6.6,29.9,6.6,29.9z M12.1,29.4L12.1,29.4c0,0,0-0.1,0.1-0.2c0,0,0,0,0,0c0,0,0,0,0,0c0,0-0.1,0-0.1,0
						C12.1,29.3,12.1,29.4,12.1,29.4z M14.6,28.9C14.6,28.9,14.6,28.9,14.6,28.9C14.6,28.9,14.6,28.9,14.6,28.9z M14,28.8L14,28.8
						C14.1,28.9,14.1,28.8,14,28.8l0.3,0c0,0,0.1,0,0.1,0c0,0,0,0-0.1,0c-0.1-0.1-0.2-0.2-0.3-0.3L14,28.8z M10.9,26.1
						C10.9,26.1,10.9,26.1,10.9,26.1C10.9,26.1,10.9,26.1,10.9,26.1z M15.2,25.7C15.2,25.7,15.2,25.7,15.2,25.7
						C15.2,25.7,15.2,25.7,15.2,25.7z M14.9,25.6C14.9,25.6,14.9,25.6,14.9,25.6C14.9,25.6,14.9,25.6,14.9,25.6z"/>
				</g>
				<g>
					<path class="st5" d="M20.8,32.7c-0.1-0.2-0.3-0.2-0.4,0c-0.1,0.1-0.2,0.3-0.3,0.5c0,0,0,0.1,0,0.1c0,0,0,0,0-0.1
						c0-0.2,0-0.4,0.1-0.5c0.1-0.2,0.2-0.3,0.3-0.5c0,0,0-0.1,0-0.1c0.1-0.1,0.1-0.3,0.2-0.4c0.1-0.3,0.1-0.4-0.1-0.6
						c0-0.1-0.1-0.1-0.2-0.2c0,0,0,0,0,0c0,0,0,0,0,0c-0.2-0.1-0.2-0.3-0.1-0.5c0,0,0,0.1,0.1,0.1c0.1,0.1,0.1,0.1,0.2,0
						c0,0,0-0.1,0.1-0.1c0.1-0.2,0.1-0.4,0-0.6c-0.3-0.4-0.7-0.8-1.2-1c-0.1,0-0.1,0-0.2,0c-0.1,0-0.2,0.1-0.2,0.2c0,0,0,0.1,0,0.1
						c-0.1,0-0.1-0.1-0.2-0.2c0-0.1,0-0.2,0.1-0.3c0.1,0,0.2,0,0.3,0c0.2,0,0.3,0.1,0.5,0.1c0,0,0.1,0,0.1,0c0,0,0-0.1,0-0.1
						c0-0.2-0.1-0.3-0.2-0.4c0,0,0-0.1-0.1-0.1c0,0,0.1,0,0.1,0c0.2,0.1,0.4,0.3,0.5,0.6c0.1,0.3,0.3,0.5,0.6,0.7c0.1,0,0.1,0,0.1,0
						c0-0.1,0-0.2-0.1-0.3c-0.1-0.3-0.3-0.6-0.6-0.9c-0.2-0.2-0.3-0.4-0.5-0.5c0,0-0.1,0-0.1,0c0,0,0,0.1,0,0.1
						c0,0.1-0.1,0.2-0.2,0.3c-0.1,0.1-0.2,0.1-0.3,0.2c-0.2,0.1-0.3,0.2-0.4,0.3c0,0,0,0,0,0c-0.1-0.1,0-0.2,0.1-0.3
						c0.1-0.1,0.3-0.2,0.4-0.2c0.3-0.2,0.3-0.4,0.1-0.7c-0.2-0.3-0.5-0.5-0.8-0.7c-0.2-0.1-0.2-0.1-0.3,0.1c0,0.1-0.1,0.1-0.1,0.1
						c0,0,0,0-0.1,0c0,0,0-0.1,0-0.1c0-0.1,0-0.2-0.1-0.3c0,0-0.1,0-0.1-0.1c-0.2-0.2-0.5-0.3-0.8-0.3c-0.2,0-0.5,0-0.7,0
						c-0.1,0-0.1,0-0.1,0.1c0,0.1,0,0.2-0.1,0.2c-0.2,0-0.3,0.1-0.5,0.1c0,0-0.1,0-0.1,0l0,0c0,0,0-0.1,0.1-0.1
						c0.1,0,0.2-0.1,0.3-0.1c0,0,0.1-0.1,0.1-0.1c-0.1-0.2-1.3,0.1-1.5,0.2c0.2,0.1,0.5,0.1,0.7,0.2c0.1,0,0.3,0.1,0.4,0.2
						c0.1,0,0.1,0,0.2,0c0.1-0.1,0.3-0.1,0.4-0.2c0.4-0.2,0.8-0.2,1.1,0.1c0,0,0.1,0,0.1,0c0,0,0-0.1,0-0.1c0-0.1-0.1-0.1-0.1-0.2
						c0,0-0.1-0.1-0.1-0.1c0,0,0.1,0,0.1,0c0.1,0,0.2,0.1,0.2,0.2c0.1,0.1,0.1,0.3,0.2,0.4c0.1,0.2,0.1,0.2,0.4,0.2
						c0.3-0.1,0.6,0,0.8,0.2c0,0,0.1,0,0.1,0.1c0,0,0,0,0,0c0,0-0.1,0-0.1,0c-0.2-0.1-0.4-0.1-0.6-0.1c-0.1,0-0.2,0.1-0.1,0.2
						c0,0.1,0.1,0.2,0.1,0.2c0.1,0.1,0.1,0.3,0,0.5c0,0.1,0,0.2,0,0.3c0.1,0.1,0.1,0.2,0.2,0.3c0.2,0.3,0.3,0.6,0.2,1
						c0,0.2,0,0.3,0.1,0.4c0.1,0.1,0.3,0.3,0.4,0.4c0,0,0.1,0.1,0.1,0.1c0.1,0.2,0.2,0.3,0.2,0.5c0,0.2,0,0.3-0.1,0.5c0,0,0,0,0,0
						c0,0,0-0.1,0-0.1c0-0.2-0.1-0.4-0.2-0.5c-0.1-0.1-0.2-0.3-0.3-0.4c-0.3-0.3-0.6-0.5-0.9-0.7c0,0-0.1,0-0.1,0
						c-0.1,0-0.1,0-0.1,0.1c0,0.1,0,0.1,0.1,0.2c0.1,0.1,0.2,0.2,0.3,0.3c0,0,0,0,0,0c0.1,0.1,0.2,0.3,0.2,0.5c0,0,0,0.1,0,0.1
						c-0.2-0.2-0.3-0.3-0.5-0.5c0,0-0.1-0.1-0.1-0.1c0,0-0.1-0.1-0.1-0.1c-0.1-0.1-0.1-0.3-0.1-0.5c0.1-0.1,0.2-0.2,0.3-0.1
						c0.1,0,0.3,0.1,0.4,0.2c0,0,0.1,0,0.1,0c0.1-0.1,0.1-0.2,0.1-0.3c0-0.3-0.1-0.6-0.3-0.8c0,0,0,0-0.1-0.1c-0.1,0-0.1,0-0.1,0
						c0,0.1,0,0.1,0,0.2c0,0,0,0.1,0,0.1c0,0,0,0,0,0c0-0.1-0.1-0.1-0.1-0.2c0-0.1,0-0.1,0-0.2c0-0.1,0.1-0.3,0.1-0.4
						c0-0.2,0.1-0.4,0-0.5c-0.2-0.4-0.5-0.7-0.8-1c-0.2-0.1-0.4-0.2-0.7-0.1c-0.2,0-0.3,0.1-0.5,0.2c-0.2,0.1-0.2,0.1,0,0.3
						c0,0,0,0,0,0c0.2,0.2,0.3,0.3,0.5,0.5c0.2,0.2,0.2,0.2,0.4,0c0,0,0,0,0,0c0.1-0.1,0.2-0.1,0.4-0.1c0,0,0,0,0.1,0
						c-0.1,0-0.1,0-0.1,0.1c-0.1,0-0.1,0.1-0.2,0.1c-0.1,0.1-0.2,0.2,0,0.4c0.1,0.1,0.2,0.2,0.2,0.3c0.2,0.2,0.3,0.4,0.2,0.7
						c0,0.3-0.1,0.6-0.1,0.8c0,0.1,0,0.2,0,0.3c0,0.2,0.1,0.5,0.3,0.7c0.2,0.2,0.4,0.4,0.6,0.6c0.1,0.1,0.2,0.2,0.3,0.3
						c0.1,0.2,0.1,0.4,0,0.5c0,0,0,0,0,0.1c0-0.1,0-0.1,0-0.2c0-0.1,0-0.1-0.1-0.2c-0.2-0.3-0.5-0.6-0.9-0.9c0,0-0.1,0-0.1,0
						c0,0.1-0.1,0.1-0.1,0.1c-0.1,0.1-0.2,0.2-0.4,0.2c0.3-0.3,0.4-0.6,0.2-0.9c-0.1-0.1-0.1-0.3-0.1-0.4c0,0,0,0,0,0
						c0-0.2,0-0.4,0.1-0.6c0-0.1,0-0.2-0.1-0.3c-0.1-0.1-0.2-0.2-0.3-0.2c-0.1-0.1-0.3-0.2-0.4-0.3c-0.1-0.1-0.2-0.2-0.2-0.3
						c0,0,0,0,0,0c0,0,0,0,0.1,0c0.2,0.2,0.5,0.4,0.8,0.6c0,0,0.1,0,0.1,0c0.1-0.1,0.1-0.2,0-0.3c-0.1-0.2-0.2-0.3-0.3-0.4
						c-0.2-0.2-0.5-0.4-0.6-0.7c-0.1-0.1-0.2-0.1-0.2,0c0,0.1-0.1,0.1-0.2,0.2c0-0.1,0-0.1,0-0.1c0.1-0.3,0-0.5-0.2-0.7
						c0,0-0.1-0.1-0.1-0.1c-0.4-0.3-0.9-0.4-1.3-0.5c-0.2,0-0.4,0-0.6,0.1c-0.3,0.2-0.3,0.4-0.1,0.7c0.1,0.1,0.1,0.2,0.2,0.3
						c0.1,0.1,0.1,0.2,0.1,0.4c0,0,0,0,0,0c-0.1-0.2-0.3-0.4-0.4-0.5c-0.1-0.1-0.2-0.2-0.2-0.4c0-0.1-0.1-0.1-0.1-0.1
						c-0.2,0-0.5,0.1-0.7,0.3c-0.1,0.1-0.1,0.1,0,0.1c0.1,0,0.2,0.1,0.3,0.1c0,0,0.1,0.1,0.1,0.1l0,0c0,0-0.1,0-0.1,0
						c0,0-0.1,0-0.1,0c0,0-0.1,0-0.1,0c-0.5,0-0.8,0.2-1.1,0.6c-0.1,0.1-0.1,0.2,0.1,0.2c0,0,0.1,0.1,0.1,0.1c0,0,0,0,0,0
						c0,0,0,0-0.1,0c-0.1,0-0.3,0-0.4,0c-0.3,0.2-0.5,0.4-0.6,0.8c0,0,0,0.1,0,0.1c0.2-0.1,0.4-0.2,0.6-0.2c0.2-0.1,0.4-0.1,0.6-0.2
						c0,0,0,0,0,0c-0.1-0.2,0-0.4,0.2-0.5c0,0,0.1-0.1,0.1-0.1c0.1-0.1,0.3-0.1,0.4-0.2c0.1,0,0.2-0.1,0.3-0.1c0.1,0,0.1-0.1,0-0.1
						c-0.1-0.1-0.2-0.1-0.3-0.1c-0.1,0-0.3,0.1-0.4,0.1c0,0-0.1,0-0.1,0c0,0,0-0.1,0.1-0.1c0.3-0.2,0.8-0.2,1,0
						c0.1,0.1,0.2,0.2,0.3,0.2c0,0,0.1,0,0.1,0c0,0,0,0,0,0c0,0,0,0,0,0.1c0,0-0.1,0-0.1,0c-0.3-0.1-0.7,0-1,0.1
						c-0.1,0.1-0.3,0.1-0.4,0.2c-0.1,0.1-0.1,0.2-0.1,0.3c0,0,0,0.1,0,0.1c0.1,0.4,0.1,0.5-0.3,0.6c-0.3,0.1-0.6,0.2-1,0.3
						c0,0,0,0-0.1,0c0.1-0.1,0.1-0.1,0.2-0.1c0.2-0.1,0.5-0.2,0.7-0.3c0.1,0,0.2-0.1,0.2-0.1c0,0,0-0.1,0.1-0.1c0,0-0.1,0-0.1-0.1
						c-0.2,0-0.3,0-0.5,0.1c-0.7,0.2-1.2,0.7-1.5,1.3c-0.1,0.1-0.1,0.2-0.1,0.3c0,0,0,0.1,0,0.1c0,0,0.1,0,0.1,0
						c0.1-0.1,0.2-0.2,0.3-0.3C9.7,31,9.8,31,9.9,30.9c0.3-0.2,0.7-0.3,1.1-0.2c0.4,0.1,0.6,0,0.8-0.4c0,0,0-0.1,0-0.1
						c0,0,0-0.1,0-0.1c0,0,0,0.1,0,0.1c0,0.1,0,0.2,0,0.4c0,0.1-0.1,0.1-0.1,0.2c0.1,0.1,0.2,0,0.3-0.1c0.1-0.1,0.1-0.2,0.2-0.3
						c0.1-0.1,0.2-0.3,0.2-0.4c0.1-0.1,0.2-0.3,0.2-0.4c0-0.1,0-0.2,0-0.3c0-0.2,0.1-0.3,0.3-0.3c0.1,0,0.2,0,0.3,0
						c0.1,0,0.1,0,0.2,0c0,0,0,0,0,0c0,0-0.1,0-0.1,0c-0.1,0-0.3,0-0.4,0.1c-0.1,0.1-0.1,0.2,0,0.3c0,0,0.1,0,0.2,0
						c0.3-0.1,0.7-0.1,1-0.2c0.1,0,0.2,0,0.2,0c0.3,0,0.5-0.2,0.6-0.4c0-0.1,0-0.3-0.1-0.4c-0.1-0.1-0.1-0.1-0.2-0.2
						c-0.2-0.2-0.4-0.3-0.5-0.5c-0.1-0.1-0.1-0.2-0.2-0.2c0,0,0,0-0.1-0.1c0,0,0,0,0,0c0.1,0,0.1,0,0.2,0.1c0.1,0.1,0.2,0.2,0.3,0.2
						c0.2,0.2,0.4,0.3,0.6,0.5c0.2,0.2,0.3,0.4,0.3,0.6c0,0.3-0.1,0.3,0.2,0.5c0.2,0.1,0.4,0.3,0.6,0.5c0.1,0.1,0.1,0.2,0.2,0.2
						c0,0.1,0,0.1,0,0.2c0,0,0,0,0,0c0,0,0,0,0,0c-0.1-0.2-0.3-0.4-0.6-0.6c-0.2-0.1-0.4-0.2-0.7-0.2c-0.1,0-0.3,0-0.4,0.1
						c0,0,0,0,0,0c-0.3,0.1-0.7,0.1-1,0.2c-0.3,0.1-0.6,0.3-0.8,0.6c0,0.1,0,0.1,0.1,0.1c0,0,0.1,0,0.1,0c0.3,0,0.7,0.3,0.8,0.6
						c0,0.1,0,0.2,0,0.3c0,0,0,0,0,0c0,0,0-0.1-0.1-0.1c-0.1-0.3-0.3-0.5-0.6-0.6c-0.1,0-0.2,0-0.3,0c-0.2,0.1-0.4,0.5-0.4,0.7
						c0,0.2,0.1,0.3,0.2,0.5c0.1,0.1,0.2,0.2,0.2,0.4c0.1,0.1,0.1,0.3,0,0.4c0,0,0,0.1-0.1,0.1c0-0.1,0-0.2-0.1-0.3
						c-0.1-0.1-0.1-0.2-0.2-0.3c-0.1-0.2-0.3-0.4-0.4-0.6c-0.1-0.1-0.1-0.3-0.3-0.3c-0.3-0.2-0.8-0.1-1,0.2
						c-0.1,0.1-0.2,0.3-0.4,0.4c-0.1,0.1-0.2,0.2-0.3,0.3c-0.4,0.2-0.6,0.6-0.6,1c0,0.1,0,0.1,0,0.2c0,0,0,0,0,0c0,0,0-0.1,0-0.1
						c-0.1-0.4,0.1-0.8,0.4-1.1c0.3-0.3,0.6-0.7,0.9-1c0,0,0-0.1,0.1-0.1c-0.1,0-0.1,0-0.1,0c-0.2,0-0.4,0.1-0.6,0.2
						c-0.4,0.3-0.7,0.7-0.9,1.1c-0.2,0.3-0.3,0.7-0.3,1.1c0,0.4,0.3,0.8,0.6,0.9c0.2,0.1,0.3,0.1,0.4,0C10,34.1,10,34,10,33.9
						c-0.1-0.3,0-0.5,0.2-0.7c0.1-0.1,0.3-0.3,0.4-0.4c0.2-0.1,0.3-0.3,0.3-0.6c0-0.1,0-0.2,0-0.2c0,0,0-0.1,0-0.1
						C11,32,11,32,11,32.1c0,0.1,0,0.1,0,0.2c0,0.1,0,0.1,0.1,0.1c0.1,0,0.1-0.1,0.2-0.1c0.1-0.1,0.3-0.1,0.4,0c0.1,0,0.2,0,0.2,0
						c0.1-0.1,0.1-0.1,0.2-0.2c0,0,0,0,0.1-0.1c0,0.1,0,0.2-0.1,0.4c0,0,0,0.1,0,0.1c0.1,0.2,0.2,0.4,0.3,0.6
						c0.1,0.1,0.1,0.2,0.2,0.3c0.1,0.1,0.2,0.1,0.3,0.1c0.1,0,0.1-0.1,0.2-0.1c0.1,0,0.2-0.1,0.3-0.1c0.1,0,0.1,0,0.2,0.1
						c-0.2,0-0.3,0.1-0.5,0.2c-0.1,0-0.2,0.1-0.2,0.1c-0.1,0.1-0.2,0-0.3-0.1c0,0-0.1-0.1-0.1-0.1c-0.1-0.1-0.1-0.2-0.2-0.4
						C12.1,33,12,32.9,12,32.7c-0.1-0.2-0.3-0.2-0.5-0.2c-0.3,0.1-0.5,0.2-0.7,0.3c-0.2,0.1-0.4,0.3-0.5,0.5
						c-0.1,0.2-0.2,0.6,0.1,0.8c0.1,0,0.1,0.1,0.2,0.1c0.2,0.1,0.3,0.2,0.5,0.3c0.1,0.1,0.2,0.2,0.3,0.3c0.1,0.2,0,0.4-0.2,0.5
						c0.1-0.3,0-0.5-0.2-0.6c-0.2-0.1-0.3-0.2-0.5-0.3c-0.2-0.1-0.3-0.1-0.5,0c-0.2,0.1-0.4,0.1-0.6,0c-0.1,0-0.1-0.1-0.2-0.1
						c-0.1,0-0.1,0-0.1,0c-0.1,0.1-0.1,0.1-0.1,0.2c0.1,0.6,0.4,1,0.8,1.3c0,0,0.1,0,0.1,0.1c0,0,0.1,0,0.1,0c0,0,0-0.1,0-0.1
						c0-0.1-0.1-0.2-0.1-0.3c0-0.1-0.1-0.2-0.2-0.3C9.5,35,9.5,35,9.4,34.9c0,0,0-0.1,0-0.1c0.1,0,0.2,0.1,0.4,0.2
						c0.1,0,0.3,0,0.4,0c-0.1,0.1-0.1,0.1-0.2,0.2c-0.1,0.1-0.1,0.1-0.1,0.2c0,0.2,0.1,0.3,0.3,0.4c0.3,0.3,1.1,0.3,1.5,0.1
						c0.3-0.2,0.6-0.4,0.7-0.8c0-0.1,0-0.1,0.1-0.2c0.1,0.1,0.1,0.1,0.1,0.2c0,0.1,0,0.1,0,0.2c0,0.1,0,0.1,0.1,0.1
						c0.1,0,0.3,0,0.4-0.1c0.1-0.1,0.2-0.2,0.2-0.4c0-0.2-0.2-0.4-0.4-0.4c-0.2-0.1-0.5-0.1-0.7-0.2c-0.3-0.1-0.5-0.2-0.8-0.4
						c0,0-0.1-0.1-0.2-0.1c-0.1,0-0.2-0.1-0.2-0.1c0,0,0,0,0,0h0.1c0.1,0,0.2,0,0.3,0c0.2,0,0.3-0.1,0.3-0.3c0,0,0,0,0-0.1
						c0.1,0,0.1,0.1,0.1,0.2c0,0.1,0,0.2,0,0.3s0,0.2,0.1,0.2c0.1,0,0.2,0.1,0.4,0.1c0.2,0.1,0.4,0.1,0.6,0.1
						c0.2,0.1,0.4,0.2,0.6,0.4c0.2,0.4,0.1,0.8-0.3,0.9c-0.1,0-0.2,0.1-0.3,0.1c0,0-0.1,0-0.1,0c0,0,0,0,0,0
						c0.1,0.1,0.2,0.1,0.3,0.2c0.3,0.1,0.6,0.2,1,0.2c0.5,0,0.7-0.3,0.9-0.6c0.1-0.2,0-0.3-0.2-0.4c-0.1,0-0.3,0-0.4,0
						c-0.2,0-0.3,0.1-0.3,0.3c0,0,0,0.1,0,0.1c0,0,0,0,0,0c0-0.1-0.1-0.2,0-0.3c0-0.2,0.2-0.4,0.5-0.4c0.2,0,0.4,0,0.6,0.1
						c0.2,0.1,0.4,0,0.5-0.1c0.3-0.3,0.3-0.6,0.2-1c-0.1-0.2-0.2-0.4-0.3-0.5c-0.1-0.2-0.1-0.3-0.1-0.5c0-0.1,0.1-0.2,0.2-0.3
						c0.1-0.1,0.3,0,0.4,0.1c-0.1,0-0.1,0-0.2,0c-0.1,0-0.2,0.1-0.2,0.2c0,0.1,0,0.2,0,0.3c0.2,0.4,0.3,0.7,0.4,1.1
						c0,0.1,0.1,0.2,0.3,0.2c0.2,0,0.3,0,0.5,0c0.3,0,0.6-0.1,0.8-0.3c0.3-0.2,0.3-0.4,0.2-0.7c-0.1-0.2-0.1-0.3-0.1-0.5
						c0,0,0-0.1,0-0.1c0,0.1,0.1,0.1,0.1,0.2c0.1,0.1,0.1,0.3,0.2,0.4c0.1,0.1,0.2,0.2,0.3,0.1c0.1,0,0.1-0.1,0.2-0.1
						c0.3-0.2,0.4-0.4,0.5-0.7c0-0.1,0-0.1,0-0.2c0.1,0.1,0.1,0.2,0.1,0.2c0,0.1,0,0.1,0,0.2c0,0.1,0,0.1,0.1,0.1
						c0.1,0,0.2-0.1,0.2-0.1c0.3-0.2,0.5-0.5,0.7-0.9c0,0,0-0.1,0-0.1c0,0,0,0,0,0c-0.1,0.6-0.4,1-0.9,1.3c0.1,0.1,0.2,0.1,0.2,0.2
						c0.1,0.1,0,0.2,0,0.3c0-0.1-0.1-0.1-0.1-0.2c0-0.1-0.1-0.1-0.2-0.2c-0.2-0.1-0.3-0.1-0.5,0c-0.2,0.1-0.3,0.3-0.5,0.3
						c-0.2,0.1-0.3,0.2-0.4,0.4c0,0.1,0,0.1,0,0.2c0.1,0.1,0.2,0.1,0.2,0.2c0.2,0.2,0.2,0.5,0,0.6c0,0,0,0,0,0c0-0.1,0-0.1,0-0.2
						c0-0.1,0-0.2-0.1-0.3c-0.1-0.1-0.2-0.1-0.3-0.2c0,0-0.1,0-0.1,0c-0.3,0.2-0.6,0.2-0.9,0.2c-0.2,0-0.4,0-0.6,0
						c-0.1,0-0.2,0.1-0.2,0.1c-0.1,0.2-0.2,0.3-0.5,0.4c-0.1,0-0.2,0.1-0.2,0.2c-0.1,0.1,0,0.2,0.1,0.3c0,0,0.1,0,0.1,0
						c0.3,0,0.5-0.1,0.7-0.3c0.1-0.1,0.1-0.1,0.2-0.2c0,0,0,0,0,0c0,0,0,0.1,0,0.1c-0.2,0.3-0.5,0.5-0.9,0.6c-0.3,0-0.6,0.1-0.9,0.3
						c-0.2,0.1-0.2,0.1-0.2,0.4c0,0.1,0,0.1,0,0.2c-0.1,0.2-0.4,0.3-0.6,0.2c0,0,0.1,0,0.1,0c0.1,0,0.2-0.1,0.3-0.1
						c0.1-0.1,0.1-0.2,0.1-0.3c-0.1-0.1-0.1-0.1-0.2-0.1c-0.2,0-0.5-0.1-0.7-0.1c-0.3-0.1-0.5-0.2-0.7-0.3c-0.2-0.1-0.3,0-0.2,0.2
						c0,0.4,0.3,0.8,0.6,1c0,0,0,0,0,0c0,0,0.1,0,0.1,0c0,0,0-0.1,0-0.1c0-0.1-0.1-0.1-0.1-0.2c-0.1-0.1,0-0.2,0.1-0.3
						c0,0.1,0.1,0.2,0.1,0.2c0.1,0.2,0.3,0.4,0.6,0.6c0.3,0.1,0.5,0.1,0.8,0.1c0.3,0,0.6-0.1,0.8-0.3c0.1-0.1,0.2-0.2,0.2-0.4
						c0-0.1,0-0.2-0.1-0.2c-0.1,0-0.1,0-0.2,0c-0.1,0-0.3,0.1-0.4,0.1c0.1-0.1,0.3-0.2,0.4-0.2c0.3,0,0.5-0.1,0.8-0.1
						c0.4,0,0.8-0.2,1-0.5c0.1-0.1,0.1-0.1,0.2-0.2c0.1-0.1,0.2-0.2,0.3-0.3c0,0,0.1,0,0.1-0.1c0,0,0,0,0,0c0,0,0,0-0.1,0.1
						c0,0,0,0-0.1,0.1c-0.1,0.1,0,0.2,0.1,0.2c0.1,0,0.2,0,0.2,0c0.3,0,0.5-0.1,0.7-0.3c0.2-0.2,0.4-0.5,0.5-0.8
						c0-0.2-0.2-0.3-0.3-0.3c0,0-0.1,0-0.1,0c0,0,0,0,0,0c0.1-0.1,0.2-0.1,0.3-0.2c0.1,0,0.2,0,0.3,0.1c0,0,0.1,0.1,0.1,0.1
						c0.1,0.1,0.1,0.1,0.2,0.1c0.2,0,0.3-0.1,0.5-0.3c0.2-0.2,0.4-0.3,0.5-0.5c0,0,0.1-0.1,0.1-0.1c0,0,0,0,0,0c0,0,0,0.1,0,0.1
						c-0.1,0.2-0.2,0.3-0.3,0.4c-0.2,0.3-0.6,0.4-0.9,0.5c-0.2,0.1-0.3,0.2-0.4,0.4c0,0,0,0.1,0,0.1c0,0.1,0.2,0.1,0.2,0.1
						c0.1,0,0.1,0,0.2-0.1c0,0,0,0,0,0c0.4-0.2,0.7-0.4,1-0.7c0,0,0.1-0.1,0.1-0.1c0.1-0.2,0.3-0.4,0.4-0.6
						C21,33.2,21,32.9,20.8,32.7L20.8,32.7z M17.2,33.5c-0.3-0.1-0.5,0-0.7,0.2c0,0,0,0,0,0c0,0,0-0.1,0-0.1c0-0.1,0.1-0.1,0.1-0.2
						c0-0.1,0-0.1,0-0.2c-0.2-0.4-0.4-0.8-0.8-1C15.8,32,15.6,32,15.5,32c0,0-0.1,0-0.1,0c-0.4,0-0.7,0.2-0.9,0.6c0,0.1,0,0.2,0,0.3
						c0,0.2,0,0.4,0,0.6c-0.1,0.3-0.3,0.4-0.5,0.6c0,0,0,0,0,0c0,0,0.1-0.1,0.1-0.1c0.2-0.2,0.3-0.4,0.3-0.7c0-0.2,0-0.4-0.2-0.5
						c-0.1-0.1-0.2-0.1-0.3-0.1c-0.2-0.1-0.3-0.2-0.4-0.3c-0.1-0.2-0.3-0.3-0.4-0.5c0.1,0,0.1,0,0.2,0.1c0.1,0.1,0.2,0.2,0.4,0.3
						c0.2,0.2,0.4,0.4,0.7,0.5c0.1,0.1,0.2,0,0.3-0.1c0.1-0.1,0.2-0.3,0.3-0.4c0.1-0.1,0.1-0.2,0.1-0.3c-0.1-0.2-0.2-0.3-0.3-0.5
						c0,0-0.1-0.1-0.1-0.1c0,0,0,0,0,0c0.1,0,0.1,0.1,0.2,0.1c0.2,0.1,0.3,0.2,0.3,0.4c0.1,0.2,0.2,0.3,0.4,0.3c0.1,0,0.1,0,0.2,0
						c0.1,0,0.2-0.1,0.2-0.2c0.1-0.2,0.1-0.4,0.1-0.6c0-0.1-0.1-0.2-0.2-0.3c-0.2-0.1-0.4-0.2-0.6-0.3c-0.2-0.1-0.4-0.2-0.6-0.2
						c-0.1,0-0.1-0.1-0.2-0.1c0,0,0,0,0,0c0.1,0,0.2,0.1,0.2,0.1c0.3,0.1,0.6,0.2,0.8,0.2c0.1,0,0.2,0.1,0.3,0.1
						c0.3,0.1,0.4,0.4,0.4,0.7c0,0.2-0.1,0.3-0.1,0.5c0,0.1,0,0.1,0,0.1c0.1,0.1,0.3,0.3,0.4,0.4c0.2,0.2,0.4,0.5,0.5,0.7
						c0.1,0.1,0.1,0.3,0.3,0.3C17.1,33.3,17.2,33.4,17.2,33.5C17.2,33.4,17.2,33.4,17.2,33.5z M19.9,31.2
						C19.9,31.2,19.9,31.3,19.9,31.2c0,0.1,0,0.2-0.1,0.2c0,0.1-0.1,0.1-0.1,0.2c0,0,0,0,0,0c0-0.1,0-0.2,0-0.2c0-0.1,0-0.2,0-0.3
						c0-0.1,0-0.1,0-0.2c0,0,0-0.1,0-0.1c0,0,0-0.1-0.1-0.1c0,0-0.1-0.1-0.1-0.1c-0.1-0.2-0.3-0.3-0.4-0.4c0,0,0,0,0,0
						c0,0-0.1,0-0.1-0.1c0,0,0.1-0.1,0.1-0.1c0.1,0,0.2,0,0.4,0c0-0.1,0-0.2,0.1-0.3c0-0.1,0.1-0.2,0.3-0.3c0,0.1,0,0.1-0.1,0.1
						c-0.1,0.2-0.1,0.3-0.1,0.5c0.1,0.3,0.2,0.5,0.2,0.8c0,0,0,0.1,0,0.1c0,0,0,0.1,0,0.1C19.9,31.1,19.9,31.2,19.9,31.2L19.9,31.2z
						"/>
				</g>
				<g>
					<path class="st5" d="M9.6,27.7c0,0.1-0.1,0.1-0.1,0.2C9.4,28,9.2,28,9.1,28C9,28,9,27.9,9,27.9c0,0,0.1-0.1,0.1-0.1
						c0.5-0.4,1-0.8,1.6-0.9c0.1,0,0.2,0,0.3,0c0,0,0.1,0,0.1,0l0,0c0,0-0.1,0-0.1,0.1c-0.2,0.1-0.3,0.2-0.5,0.3
						c-0.1,0.1-0.2,0.2-0.3,0.3c0,0,0,0,0,0c0.2-0.2,0.4-0.2,0.6-0.3c0.2-0.1,0.4-0.2,0.6-0.3c0.1-0.1,0.3-0.1,0.4,0
						c0.1,0,0.1,0,0.2,0.1c0-0.1-0.1-0.1-0.2-0.2c-0.1,0-0.2-0.1-0.3-0.1c0.1,0,0.1-0.1,0.2-0.1c0.3-0.1,0.6-0.1,0.9-0.1
						c0.1,0,0.1,0,0.2,0.1c0.1,0.1,0.1,0.1,0,0.2c-0.1,0-0.2,0.1-0.3,0.1c0,0-0.1,0-0.1,0c0.1,0.1,0.2,0.1,0.3,0.1c0,0,0.1,0,0.1,0
						c0.2-0.1,0.5-0.2,0.7-0.2v0c0,0,0,0-0.1,0c-0.1,0-0.3-0.1-0.4-0.1c0,0-0.1,0-0.1-0.1c0,0,0.1-0.1,0.1-0.1
						c0.2-0.1,0.4-0.1,0.6-0.1c0.2,0,0.4,0,0.6,0c0.1,0,0.1,0.1,0.2,0.1c0,0-0.1,0.1-0.1,0.1c-0.2,0.1-0.4,0.2-0.6,0.3
						c-0.1,0-0.1,0-0.2,0.1c-0.2,0-0.3,0.1-0.5,0.2C13.1,27,13,27,12.8,27c-0.2,0.1-0.5,0.1-0.8,0.1c-0.2,0-0.3,0-0.5,0.1
						c-0.2,0.1-0.3,0.2-0.3,0.4c0.2-0.1,0.4-0.3,0.6-0.3c0,0,0,0,0.1,0c-0.1,0.1-0.1,0.1-0.2,0.2c-0.1,0.1-0.2,0.2-0.2,0.2
						c0,0-0.1,0.1-0.1,0.1c-0.1,0.1-0.2,0.2-0.3,0.3c-0.1,0.1-0.2,0.2-0.3,0.2c-0.2,0-0.3,0.1-0.4,0.3c0,0,0.1,0,0.1,0
						c0.1,0,0.1-0.1,0.2,0c0,0,0,0.1-0.1,0.2c-0.2,0.2-0.3,0.4-0.5,0.5c0,0-0.1,0.1-0.1,0c0,0-0.1-0.1-0.1-0.1c0-0.2,0-0.4,0.2-0.6
						c0.1-0.1,0.2-0.2,0.3-0.3c0.1-0.1,0.2-0.3,0.3-0.4c0,0,0-0.1,0.1-0.2c0,0,0,0-0.1,0c-0.2,0.2-0.4,0.4-0.6,0.5
						c-0.2,0.2-0.3,0.4-0.4,0.6c0,0.1,0,0.1-0.1,0.1c-0.2,0.1-0.4,0.2-0.6,0.3c-0.1,0-0.1,0-0.2,0.1c0-0.1,0-0.1,0-0.2
						C9,29,9,28.9,9.1,28.8c0-0.1,0.1-0.1,0.2-0.1c0,0,0.1,0,0.1,0c-0.1-0.1-0.3-0.2-0.4-0.2c-0.3,0-0.5,0.2-0.7,0.4l0,0
						c0,0,0.1,0,0.1,0c0.1,0,0.2-0.1,0.3-0.1c0.1,0,0.2,0,0.2,0.2c0,0,0,0.1-0.1,0.1c0,0.1-0.1,0.2-0.1,0.3
						c-0.1,0.1-0.1,0.3-0.2,0.4c0,0.1-0.1,0.2-0.2,0.3c-0.1,0.2-0.1,0.4-0.1,0.5c0,0.1,0.1,0.2,0.1,0.3c0.1,0.2,0.1,0.3-0.1,0.4
						c-0.1,0.1-0.1,0.1-0.2,0.2c-0.2,0.1-0.2,0.3-0.2,0.5c0,0.1,0,0.2,0,0.2c0,0.1,0,0.1-0.1,0.2c-0.1,0.1-0.1,0.2-0.1,0.3
						c0.2-0.2,0.3-0.3,0.6-0.1l0,0c0,0,0-0.1-0.1-0.1c-0.3-0.3-0.2-0.7,0-0.9c0.1-0.1,0.1-0.1,0.2-0.2c0.1-0.1,0.1-0.3,0.1-0.4
						c0-0.1-0.1-0.2-0.1-0.3c-0.1-0.3-0.1-0.6,0.1-0.8c0.2-0.3,0.5-0.5,0.9-0.7c0.1-0.1,0.1-0.1,0.2,0.1c0,0.1,0.1,0.2,0.1,0.2
						c0,0.1,0,0.1,0,0.2c-0.2,0.2-0.4,0.4-0.6,0.6c-0.1,0.1-0.2,0-0.2-0.1c0-0.1,0-0.2,0.1-0.3c0-0.1,0-0.1,0.1-0.1
						c-0.1,0-0.3,0.2-0.3,0.3c0,0.1,0,0.3,0,0.4c0,0.1,0,0.2,0,0.3C9,31,9,31.1,8.9,31.3c-0.1,0.2-0.1,0.5-0.2,0.7
						c-0.1,0.3-0.2,0.6-0.2,0.9c0,0,0,0,0,0c-0.1,0.3-0.2,0.4-0.5,0.4c-0.1,0-0.2-0.1-0.3-0.1c-0.2-0.1-0.3-0.3-0.3-0.5
						c0-0.4,0-0.7,0.2-1.1c0.1-0.2,0.2-0.4,0.3-0.6c0.1-0.1,0.1-0.3,0.1-0.4c0,0,0-0.1,0-0.1c-0.1-0.1-0.1-0.2-0.2-0.2
						c-0.1,0-0.2,0.1-0.2,0.2c-0.1,0.1-0.1,0.3,0,0.4h0c0,0,0-0.1,0-0.1c0-0.1,0.1-0.2,0.1-0.2c0-0.1,0.1-0.1,0.2,0
						c0,0,0.1,0.1,0.1,0.1c0,0.1,0,0.2-0.1,0.3c-0.1,0.2-0.2,0.4-0.3,0.6c-0.2,0.4-0.3,0.8-0.2,1.2c0.1,0.4,0.4,0.6,0.8,0.7
						c0.1,0,0.2,0,0.3,0.1c0.1,0,0.2,0.2,0.2,0.3c0,0.1,0,0.1-0.1,0.1c-0.1,0-0.1-0.1-0.2-0.1c-0.1,0-0.3,0-0.3,0.1
						c0.1,0,0.2,0,0.2,0c0.2,0.1,0.4,0.2,0.4,0.4c0.1,0.2,0.2,0.5,0.2,0.7c0,0,0,0,0,0.1c0,0.1,0,0.1-0.1,0.2c-0.1,0-0.1,0-0.2,0
						c-0.2-0.1-0.4-0.3-0.2-0.6c0,0,0,0,0-0.1c-0.1,0.1-0.2,0.3-0.2,0.4c0,0.1,0,0.1,0,0.2c0,0.1-0.1,0.1-0.1,0.1
						c-0.2-0.1-0.4-0.2-0.6-0.4c-0.2-0.2-0.3-0.4-0.5-0.7c-0.1-0.1-0.1-0.3-0.1-0.5c0-0.1,0-0.1,0.1,0c0.2,0.2,0.4,0.4,0.6,0.6
						c0,0,0,0.1,0.1,0.2c0,0,0-0.1,0-0.1c0-0.2,0-0.3-0.1-0.4c-0.1-0.2-0.3-0.3-0.4-0.5c-0.1-0.1-0.2-0.3-0.3-0.4
						c-0.2-0.3-0.2-0.7,0.1-1C7,32,7,32,7,32c0.1-0.1,0.1-0.3,0-0.4C7,31.6,7,31.7,7,31.7c0,0-0.1,0-0.1,0.1c0,0-0.1-0.1-0.1-0.1
						c0-0.2,0-0.3,0-0.5c0-0.2,0.1-0.5,0.3-0.7c0.3-0.3,0.6-0.6,0.8-0.9c0,0,0.1-0.1,0.1-0.1c0,0.2,0,0.4,0,0.6
						c0-0.2,0.1-0.3,0.1-0.5c0,0,0-0.1,0-0.1c0-0.2-0.1-0.3-0.3-0.2c-0.1,0.1-0.3,0.2-0.4,0.3c0,0-0.1,0.1-0.1,0.1
						c0-0.1,0-0.2,0-0.3c0.1-0.1,0.2-0.3,0.3-0.4c0.2-0.2,0.4-0.4,0.6-0.6c0.2-0.2,0.5-0.3,0.8-0.3c0.1,0,0.1,0,0.2-0.1
						C9.6,28.1,9.6,27.9,9.6,27.7L9.6,27.7z"/>
				</g>
				<g>
					<path class="st5" d="M17.4,36c0,0.1,0,0.1-0.1,0.2c0,0.1-0.1,0.2-0.1,0.2c-0.4,0.4-0.9,0.7-1.4,0.7c-0.1,0-0.2,0-0.3-0.1
						c0.1-0.1,0.2-0.2,0.2-0.3c0-0.1,0.1-0.1,0.1-0.2c0.1-0.1,0.2-0.1,0.3-0.1c0.4,0,0.7-0.2,1-0.5c0.1,0,0.1-0.1,0.1-0.2
						c0-0.1,0.1-0.1,0.1-0.1c0.4,0,0.8-0.1,1.1-0.3c0.1-0.1,0.2-0.1,0.4-0.1c0,0,0.1,0,0.1,0c0,0,0,0.1,0,0.1c0,0.1-0.1,0.1-0.1,0.2
						c-0.3,0.3-0.6,0.6-1,0.8c-0.1,0-0.1,0-0.2,0.1c-0.1,0-0.1,0-0.1-0.1C17.5,36.1,17.5,36.1,17.4,36L17.4,36z"/>
				</g>
				<g>
					<path class="st5" d="M20.9,31.2c0.1,0,0.3,0.1,0.3,0.2c0.1,0.1,0.2,0.3,0.2,0.4c0,0.3,0,0.6-0.1,0.9c0,0.1,0,0.1-0.1,0.1
						c0,0.1-0.1,0-0.1,0c0,0-0.1-0.1-0.1-0.1c0-0.1-0.1-0.2-0.2-0.3c-0.1-0.1-0.2-0.2-0.1-0.4c0.1-0.2,0.1-0.4,0.1-0.7
						C20.9,31.3,20.9,31.2,20.9,31.2z"/>
				</g>
				<g>
					<path class="st5" d="M20.9,29.8c0.2,0.3,0.3,0.6,0.3,0.9c0,0.1,0,0.2,0,0.3c0,0.1,0,0.1-0.1,0.1c-0.1,0-0.2-0.1-0.3-0.1
						c-0.1,0-0.2-0.1-0.1-0.2c0.1-0.3,0.2-0.5,0.2-0.8C20.9,29.9,20.9,29.8,20.9,29.8C20.9,29.8,20.9,29.8,20.9,29.8L20.9,29.8z"/>
				</g>
				<g>
					<path class="st5" d="M10,36.1c0-0.1,0.1-0.1,0.2-0.1c0.2,0.1,0.3,0.1,0.5,0.2c0.4,0.1,0.7,0,1.1-0.1c0,0,0.1,0,0.1,0
						c0,0,0.1,0,0.1,0c0,0,0,0.1,0,0.1c0,0-0.1,0.1-0.1,0.1c-0.4,0.2-0.8,0.3-1.2,0.1c-0.2-0.1-0.3-0.1-0.5-0.2
						C10.1,36.2,10.1,36.2,10,36.1L10,36.1z"/>
				</g>
				<g>
					<path class="st5" d="M18.7,36.7c0,0.1-0.1,0.1-0.2,0.1c-0.3-0.1-0.6-0.1-0.8-0.3c0,0,0,0,0,0c0.1-0.1,0.3-0.2,0.4-0.1
						C18.2,36.6,18.4,36.6,18.7,36.7C18.6,36.7,18.7,36.7,18.7,36.7L18.7,36.7z"/>
				</g>
				<g>
					<path class="st5" d="M18.2,37c-0.3,0-0.5,0-0.8-0.1c0,0,0,0,0,0c-0.1,0-0.1-0.1,0-0.2c0-0.1,0.1-0.1,0.1,0
						C17.7,36.8,17.9,36.8,18.2,37C18.2,36.9,18.2,37,18.2,37L18.2,37L18.2,37z"/>
				</g>
				<g>
					<path class="st5" d="M18.9,35.8c0,0.1,0.1,0.2,0.1,0.2c0,0.1,0,0.2,0,0.3c0,0.1-0.1,0.2-0.2,0.2c0,0,0,0,0-0.1
						c0-0.1,0-0.3-0.1-0.4c0-0.1,0-0.1,0-0.2C18.8,35.9,18.8,35.9,18.9,35.8z"/>
				</g>
				<g>
					<path class="st5" d="M19.1,36.4c0-0.1,0-0.2-0.1-0.3c0-0.1,0-0.2-0.1-0.3c0-0.1,0-0.1,0-0.1c0,0,0.1-0.1,0.1-0.1
						c0,0.1,0.1,0.3,0.1,0.4c0,0.1,0,0.2,0,0.3C19.3,36.3,19.2,36.3,19.1,36.4L19.1,36.4z"/>
				</g>
				<g>
					<path class="st5" d="M19.4,35.2c0.1,0.2,0.2,0.7,0.1,0.9c0,0,0-0.1,0-0.1c-0.1-0.2-0.1-0.3-0.2-0.5
						C19.2,35.4,19.2,35.4,19.4,35.2C19.3,35.3,19.3,35.3,19.4,35.2L19.4,35.2z"/>
				</g>
				<g>
					<path class="st5" d="M18.5,36.1c0.1,0.1,0.1,0.3,0.1,0.4c-0.1-0.1-0.2-0.1-0.4-0.2c0,0,0-0.1,0-0.1
						C18.3,36.2,18.4,36.2,18.5,36.1L18.5,36.1z"/>
				</g>
				<g>
					<path class="st5" d="M19.5,35.1c0.1,0,0.2,0,0.2,0.1c0,0.1,0,0.2,0,0.3h0C19.6,35.4,19.6,35.3,19.5,35.1L19.5,35.1z"/>
				</g>
				<g>
					<path d="M17.2,33.5c-0.3-0.1-0.5,0-0.7,0.2l0,0c0,0,0-0.1,0-0.1c0-0.1,0.1-0.1,0.1-0.2c0-0.1,0-0.1,0-0.2
						c-0.2-0.4-0.4-0.8-0.8-1C15.8,32,15.6,32,15.5,32c0,0-0.1,0-0.1,0c-0.4,0-0.7,0.2-0.9,0.6c0,0.1,0,0.2,0,0.3c0,0.2,0,0.4,0,0.6
						c-0.1,0.3-0.3,0.4-0.5,0.6c0,0,0,0,0,0c0,0,0.1-0.1,0.1-0.1c0.2-0.2,0.3-0.4,0.3-0.7c0-0.2,0-0.4-0.2-0.5
						c-0.1-0.1-0.2-0.1-0.3-0.1c-0.2-0.1-0.3-0.2-0.4-0.3c-0.1-0.2-0.3-0.3-0.4-0.5c0.1,0,0.1,0,0.2,0.1c0.1,0.1,0.2,0.2,0.4,0.3
						c0.2,0.2,0.4,0.4,0.7,0.5c0.1,0.1,0.2,0,0.3-0.1c0.1-0.1,0.2-0.3,0.3-0.4c0.1-0.1,0.1-0.2,0.1-0.3c-0.1-0.2-0.2-0.3-0.3-0.5
						c0,0-0.1-0.1-0.1-0.1l0,0c0.1,0,0.1,0.1,0.2,0.1c0.2,0.1,0.3,0.2,0.3,0.4c0.1,0.2,0.2,0.3,0.4,0.3c0.1,0,0.1,0,0.2,0
						c0.1,0,0.2-0.1,0.2-0.2c0.1-0.2,0.1-0.4,0.1-0.6c0-0.1-0.1-0.2-0.2-0.3c-0.2-0.1-0.4-0.2-0.6-0.3c-0.2-0.1-0.4-0.2-0.6-0.2
						c-0.1,0-0.1-0.1-0.2-0.1l0,0c0.1,0,0.2,0.1,0.2,0.1c0.3,0.1,0.6,0.2,0.8,0.2c0.1,0,0.2,0.1,0.3,0.1c0.3,0.1,0.4,0.4,0.4,0.7
						c0,0.2-0.1,0.3-0.1,0.5c0,0.1,0,0.1,0,0.1c0.1,0.1,0.3,0.3,0.4,0.4c0.2,0.2,0.4,0.5,0.5,0.7c0.1,0.1,0.1,0.3,0.3,0.3
						C17.1,33.3,17.2,33.4,17.2,33.5L17.2,33.5L17.2,33.5z"/>
				</g>
				<g>
					<path d="M19.7,31.6c0-0.1,0-0.2,0-0.2c0.1-0.5-0.3-1-0.7-1.2c0,0,0,0,0,0c0,0-0.1,0-0.1-0.1c0,0,0.1-0.1,0.1-0.1
						c0.1,0,0.2,0,0.4,0c0-0.1,0-0.2,0.1-0.3c0-0.1,0.1-0.2,0.3-0.3c0,0.1,0,0.1-0.1,0.1c-0.1,0.2-0.1,0.3-0.1,0.5
						c0.1,0.3,0.2,0.5,0.2,0.8c0.1,0.2,0,0.4,0,0.6C19.8,31.5,19.8,31.5,19.7,31.6L19.7,31.6L19.7,31.6z"/>
				</g>
			</g>
		</g>
		<g>
			<g>
				<path d="M8.1,33.9C8.1,33.9,8.1,33.9,8.1,33.9c0-0.1,0-0.1,0-0.2c0-0.1-0.1-0.2-0.1-0.3c0-0.1-0.1-0.1-0.1-0.2c0,0,0,0,0,0
					c-0.1-0.1-0.2-0.2-0.4-0.3c-0.1,0-0.1,0-0.2-0.1h0c-0.1,0-0.3,0-0.4,0c0,0-0.1,0-0.1,0c-0.1,0-0.2,0-0.3,0c-0.3,0-0.5,0-0.6-0.3
					c-0.2-0.6,0.4-0.7,0.7-1l0,0c0.4-0.3,0.6-0.8,0.5-1.3c0-0.1,0-0.1-0.1-0.2c-0.3-0.6-0.7-1-1.4-1c-1.3,0.2-2.5,0.6-3,2
					c-0.1,0.2-0.1,0.5-0.3,0.6c-0.2,0.1-0.4,0.2-0.7,0.4c0,0,0,0,0,0c-0.1,0-0.2,0.1-0.3,0.1c0,0,0,0,0,0c-0.9,0.6-1.1,1.5-0.5,2.4
					c0.3,0.5,0.7,0.8,1.1,0.9c0.1,0,0.2,0,0.3,0c0.1,0,0.2,0,0.2,0c0,0,0.1,0,0.1,0c0,0,0,0,0,0c0.4-0.1,0.9-0.1,1.2,0.1
					c1.3,0.6,2.4,0.4,3.6,0c0.1,0,0.2-0.1,0.3-0.1c0.1-0.1,0.2-0.1,0.3-0.2C8.1,34.9,8.2,34.4,8.1,33.9L8.1,33.9z M2.6,34.4
					c-0.3,0.2-0.5,0.3-0.7,0.2c-0.3-0.1-0.5-0.3-0.6-0.5c-0.3-0.5-0.2-0.9,0.3-1.2c0.2-0.1,0.3-0.2,0.5-0.2c0.2,0,0.5,0.1,0.8,0.3
					C3.2,33.9,2.9,34.2,2.6,34.4z M6.7,34.5C6.7,34.5,6.7,34.5,6.7,34.5c-0.1,0-0.2,0.1-0.2,0.1c-0.5,0.1-0.9,0.2-1.4,0.2
					c-0.1,0-0.2,0-0.4-0.1c-0.2,0-1.4-3-1.4-3.2c0.2-0.8,1.3-1.5,2.3-1.3c0.1,0,0.1,0.1,0.2,0.3c-0.8,0.6-1.6,1.2-1.2,2.3
					c0.3,0.8,0.9,1.2,1.8,1.1c0,0,0.1,0,0.1,0c0.1,0,0.2,0,0.2,0c0,0,0,0,0.1,0c0,0,0,0,0,0c0,0,0,0,0,0c0,0,0,0,0,0c0,0,0,0,0,0
					c0,0,0,0.1,0,0.1c0,0,0,0,0,0.1l0,0c0,0,0,0.1,0,0.1c0,0,0,0.1-0.1,0.1C6.9,34.4,6.9,34.5,6.7,34.5C6.8,34.5,6.8,34.5,6.7,34.5
					C6.8,34.5,6.7,34.5,6.7,34.5L6.7,34.5z"/>
			</g>
			<g>
				<path d="M2.8,33c0.4,0.8,0.1,1.2-0.2,1.4c-0.3,0.2-0.5,0.3-0.7,0.2c-0.3-0.1-0.5-0.3-0.6-0.5c-0.3-0.5-0.2-0.9,0.3-1.2
					c0.2-0.1,0.3-0.2,0.5-0.2C2.3,32.7,2.5,32.9,2.8,33L2.8,33z"/>
			</g>
			<g>
				<path d="M7,34.2c0,0.3-0.3,0.4-0.5,0.4c-0.5,0.1-0.9,0.2-1.4,0.2c-0.1,0-0.2,0-0.4-0.1c-0.2,0-1.4-3-1.4-3.2
					c0.2-0.8,1.3-1.5,2.3-1.3c0.1,0,0.1,0.1,0.2,0.3c-0.8,0.6-1.6,1.2-1.2,2.3c0.3,0.8,0.9,1.2,1.8,1.1C6.7,33.9,7,33.8,7,34.2z"/>
			</g>
			<g>
				<path class="st2" d="M7,34.2c0,0.3-0.3,0.4-0.5,0.4c-0.5,0.1-0.9,0.2-1.4,0.2c-0.1,0-0.2,0-0.4-0.1c-0.2,0-1.4-3-1.4-3.2
					c0.2-0.8,1.3-1.5,2.3-1.3c0.1,0,0.1,0.1,0.2,0.3c-0.8,0.6-1.6,1.2-1.2,2.3c0.3,0.8,0.9,1.2,1.8,1.1C6.7,33.9,7,33.8,7,34.2z"/>
			</g>
			<g>
				<g>
					<path class="st3" d="M2.6,34.4c-0.3,0.2-0.5,0.3-0.7,0.2c-0.3-0.1-0.5-0.3-0.6-0.5c-0.3-0.5-0.2-0.9,0.3-1.2
						c0.2-0.1,0.3-0.2,0.5-0.2c0.2,0,0.5,0.1,0.8,0.3C3.2,33.9,2.9,34.2,2.6,34.4z"/>
				</g>
				<g>
					<path d="M1.2,32.2c0.1,0,0.2-0.1,0.3-0.1C1.3,32.1,1.3,32.1,1.2,32.2z"/>
				</g>
			</g>
		</g>
		<g>
			<g>
				<g>
					<path d="M38.4,34.2c0-0.4-0.1-0.8-0.3-1.1c0,0,0,0,0-0.1c-0.1-0.1-0.1-0.3-0.2-0.4c-0.2-0.5-0.3-0.9-0.4-1.4c0,0,0,0,0,0
						c-0.8-3.5-2.4-6.5-5.5-8.5l0,0c-0.3-0.2-0.1-0.2-0.3,0c-0.1,0-0.1,0.1-0.1,0.1c0,0-0.1,0-0.1,0L31,23.1c0,0-0.6,0.5-1.3,1.7
						L29.1,26c-0.4,1.3-0.4,1.2-0.2,1.6c0,0,0,0.1,0.1,0.1l1.6,0.9c0.1,0,0.1-0.1,0.2-0.1c0.5-0.2,0.7,0.3,0.9,0.6
						c0.1,0.1,0.2,0.3,0.4,0.4c0.7,0.8,1.2,1.6,1.4,2.5c0,0.1,0.1,0.3,0.1,0.4c0,0.1,0,0.2,0,0.3c0,0.1,0,0.2,0,0.3
						c-0.1,0.5-0.6,0.5-0.9,0.6c-0.1,0-0.3,0.1-0.4,0.1c-1.2,0.3-2.2,0.3-3.2,0.1c-0.2-0.1-0.4-0.1-0.7-0.2c-1.1-0.4-2-1.2-2.9-2.3
						c-0.2-0.3-0.6-0.6-0.8-0.8c0,0-0.1-0.1-0.1-0.1c-0.9-0.5-1.7-0.6-2.5-0.7c-0.4,0-0.7,0-1,0.2c-0.1,0.1-0.2,0.1-0.2,0.2
						c0,0-0.1,0.1-0.1,0.1c-0.2,0.2-0.3,0.5-0.4,0.8c0,0,0,0.1,0,0.1c0,0.1,0,0.1-0.1,0.2c-0.1,0.4,0,0.7,0.2,1
						c0.1,0.2,0.2,0.3,0.4,0.4c0,0,0.1,0.1,0.1,0.1c0.1,0.1,0.2,0.1,0.2,0.1c0.1,0.1,0.2,0.1,0.3,0.2c0.3,0.2,0.5,0.4,0.4,0.9
						c-0.2,0.6-0.7,0.5-1.1,0.5c-0.1,0-0.2,0-0.3,0c-0.1,0-0.1,0-0.2,0c-0.5,0.1-0.8,0.4-1,0.7c-0.1,0.1-0.1,0.3-0.1,0.4
						c0,0.1,0,0.1,0,0.2c0,0.2,0,0.5,0,0.8c0,0.1,0,0.2,0.1,0.4c0.1,0.3,0.3,0.5,0.6,0.7c1.3,0.6,2.9,1,4.2,0.3
						c1.4-0.8,2.8-0.5,4.1-0.2c1.6,0.4,3.1,0.6,4.6,0.6c0.4,0,0.9,0,1.3-0.1c0.5-0.1,1.1-0.2,1.6-0.3c0.1,0,0.3-0.1,0.4-0.1
						c0,0,0,0,0,0c0.2-0.1,0.4-0.1,0.6-0.2c1-0.4,1.6-1.3,1.7-2.5C38.5,34.7,38.5,34.5,38.4,34.2L38.4,34.2z M24.5,33.5
						c-0.4,0.5-0.6,1.1-0.5,1.7c0.2,0.8-0.1,1.2-0.9,1.4c-0.9,0.1-1.9,0.2-2.5-0.5c-0.4-0.4,0.2-0.5,0.5-0.5c1.1,0,1.9-0.5,2.2-1.7
						c0.3-1-0.2-1.6-0.9-2.2c-0.2-0.2-0.8-0.2-0.6-0.7c0,0,0-0.1,0-0.1c0,0,0,0,0,0c0,0,0,0,0-0.1c0,0,0,0,0,0c0,0,0,0,0,0
						c0,0,0,0,0,0c0,0,0,0,0.1,0c0,0,0,0,0,0c0,0,0,0,0,0c0,0,0.1,0,0.1,0c0,0,0.1,0,0.1,0c0,0,0.1,0,0.1,0c0,0,0,0,0.1,0
						c0,0,0.1,0,0.1,0c0,0,0.1,0,0.1,0h0c0.1,0,0.1,0,0.2,0c0.3,0,0.7,0.2,1,0.3C24.6,31.9,25.4,32.4,24.5,33.5z M27.4,35.4
						c-0.3,0.6-0.8,0.8-1.4,0.5c-0.6-0.3-0.8-0.9-0.5-1.5c0.3-0.5,0.8-0.7,1.4-0.4C27.5,34.3,27.6,34.8,27.4,35.4z M32.1,27.3
						c-0.4,0-0.5-0.3-0.5-0.5c0-0.8,0.5-1.3,1.1-1.6c0.3-0.1,0.7,0.4,0.6,0.7C33.1,26.4,32.3,26.6,32.1,27.3z M32.5,27.7
						c0.1-0.7,0.7-1.1,1.2-1.3c0.3-0.2,0.7,0.5,0.6,0.6c-0.3,0.5-0.8,0.9-1.3,1.4C32.9,28.1,32.5,27.9,32.5,27.7z M33.5,28.8
						c0.1-0.6,0.6-0.9,1.1-1.1c0.3-0.1,0.4,0.4,0.5,0.9c-0.4,0.2-0.8,0.5-1.3,0.6C33.6,29.4,33.5,29,33.5,28.8z M29.6,36.1
						c-0.1,0.4-0.5,0.3-0.7,0.1c-0.5-0.3,0-0.6,0-0.9c0.2-0.2,0.4-0.3,0.6-0.2C29.8,35.4,29.7,35.8,29.6,36.1z M31,36.4
						c-0.1,0.4-0.4,0.3-0.7,0.2c-0.7-0.2-0.2-0.8-0.3-1.1c0.1-0.5,0.5-0.5,0.7-0.4C31.3,35.4,31.1,35.9,31,36.4L31,36.4z M34.2,30.1
						c-0.1-0.7,0.5-0.7,1-0.9c0.4-0.1,0.5,0.2,0.5,0.5c0.1,0.7-0.6,0.5-0.8,0.8C34.5,30.6,34.3,30.3,34.2,30.1z M37.1,34.1
						c0,0.1,0,0.2-0.1,0.4c-0.2,0.4-0.5,0.6-1,0.6c-0.3,0-0.5-0.1-0.7-0.2c-0.1-0.1-0.2-0.2-0.3-0.4C35,34.3,35,34.1,35,34
						c0-0.4,0.1-0.7,0.4-0.9c0.1-0.1,0.2-0.1,0.4-0.1c0.1,0,0.1,0,0.2,0c0.7,0,1.1,0.4,1.1,1C37.1,33.9,37.1,34,37.1,34.1z"/>
				</g>
				<g>
					<path class="st0" d="M36.1,31.2c0,0.2-0.1,0.2-0.1,0.3c0,0-0.1,0-0.1,0c-0.2,0.1-0.4,0-0.6,0.1c0,0,0,0-0.1,0
						c-0.1,0-0.3-0.1-0.3-0.2c-0.1-0.1-0.1-0.2-0.1-0.3c0-0.1,0-0.1,0.1-0.2c0.1-0.2,0.5-0.3,0.7-0.4c0.1,0,0.1,0,0.1,0
						C36,30.6,36.1,30.9,36.1,31.2z"/>
				</g>
				<g>
					<path class="st0" d="M32.6,36.2c0,0.1,0,0.3,0,0.4c0,0.3-0.6,0.2-1.1,0.1c0-0.4-0.1-1,0-1.4c0-0.3,0.4-0.3,0.6-0.1
						c0,0,0.1,0.1,0.1,0.1c0,0,0,0,0,0c0,0,0,0,0.1,0.1c0,0,0.1,0.1,0.1,0.1c0,0,0,0.1,0.1,0.1c0,0,0,0.1,0.1,0.1c0,0,0,0.1,0,0.1v0
						c0,0,0,0,0,0c0,0.1,0,0.2,0,0.3C32.6,36.1,32.6,36.1,32.6,36.2L32.6,36.2z"/>
				</g>
				<g>
					<path class="st0" d="M34.2,36.4c0,0.4-0.8,0.4-0.8,0.3c-0.1-0.1-0.1-0.3-0.2-0.4c-0.2-0.4-0.3-0.9-0.5-1.3
						c0.4-0.1,0.8-0.3,0.9-0.2c0,0,0,0,0,0l0.1,0.1c0.3,0.3,0.4,0.6,0.5,1C34.2,36,34.2,36.2,34.2,36.4L34.2,36.4z"/>
				</g>
				<g>
					<path d="M24.5,33.5c-0.4,0.5-0.6,1.1-0.5,1.7c0.2,0.8-0.1,1.2-0.9,1.4c-0.9,0.1-1.9,0.2-2.5-0.5c-0.4-0.4,0.2-0.5,0.5-0.5
						c1.1,0,1.9-0.5,2.2-1.7c0.3-1-0.2-1.6-0.9-2.2c-0.2-0.2-0.8-0.2-0.6-0.7c0.2-0.5,0.7-0.2,1-0.2c0.3,0,0.7,0.2,1,0.3
						C24.6,31.9,25.4,32.4,24.5,33.5L24.5,33.5z"/>
				</g>
				<g>
					<path d="M27.4,35.4c-0.3,0.6-0.8,0.8-1.4,0.5c-0.6-0.3-0.8-0.9-0.5-1.5c0.3-0.5,0.8-0.7,1.4-0.4C27.5,34.3,27.6,34.8,27.4,35.4
						L27.4,35.4z"/>
				</g>
				<g>
					<path d="M29.6,36.1c-0.1,0.4-0.5,0.3-0.7,0.1c-0.5-0.3,0-0.6,0-0.9c0.2-0.2,0.4-0.3,0.6-0.2C29.8,35.4,29.7,35.8,29.6,36.1
						L29.6,36.1z"/>
				</g>
				<g>
					<path d="M31,36.4c-0.1,0.4-0.4,0.3-0.7,0.2c-0.7-0.2-0.2-0.8-0.3-1.1c0.1-0.5,0.5-0.5,0.7-0.4C31.3,35.4,31.1,35.9,31,36.4
						L31,36.4z"/>
				</g>
				<g>
					<path class="st2" d="M24.5,33.5c-0.4,0.5-0.6,1.1-0.5,1.7c0.2,0.8-0.1,1.2-0.9,1.4c-0.9,0.1-1.9,0.2-2.5-0.5
						c-0.4-0.4,0.2-0.5,0.5-0.5c1.1,0,1.9-0.5,2.2-1.7c0.3-1-0.2-1.6-0.9-2.2c-0.2-0.2-0.8-0.2-0.6-0.7c0.2-0.5,0.7-0.2,1-0.2
						c0.3,0,0.7,0.2,1,0.3C24.6,31.9,25.4,32.4,24.5,33.5L24.5,33.5z"/>
				</g>
				<g>
					<path class="st3" d="M27.4,35.4c-0.3,0.6-0.8,0.8-1.4,0.5c-0.6-0.3-0.8-0.9-0.5-1.5c0.3-0.5,0.8-0.7,1.4-0.4
						C27.5,34.3,27.6,34.8,27.4,35.4L27.4,35.4z"/>
				</g>
				<g>
					<path class="st0" d="M31,36.4c-0.1,0.4-0.4,0.3-0.7,0.2c-0.7-0.2-0.2-0.8-0.3-1.1c0.1-0.5,0.5-0.5,0.7-0.4
						C31.3,35.4,31.1,35.9,31,36.4L31,36.4z"/>
				</g>
				<g>
					<path class="st0" d="M29.6,36.1c-0.1,0.4-0.5,0.3-0.7,0.1c-0.5-0.3,0-0.6,0-0.9c0.2-0.2,0.4-0.3,0.6-0.2
						C29.8,35.4,29.7,35.8,29.6,36.1L29.6,36.1z"/>
				</g>
			</g>
			<g>
				<g>
					<path d="M33.4,25.8c-0.3,0.6-1.1,0.8-1.3,1.4c-0.4,0-0.5-0.3-0.5-0.5c0-0.8,0.5-1.3,1.1-1.6C33,25.1,33.5,25.6,33.4,25.8z"/>
				</g>
				<g>
					<path d="M34.4,27c-0.3,0.5-0.8,0.9-1.3,1.4c-0.3-0.3-0.7-0.5-0.6-0.7c0.1-0.7,0.7-1.1,1.2-1.3C34.1,26.2,34.5,26.9,34.4,27
						L34.4,27z"/>
				</g>
				<g>
					<path d="M35.2,28.6c-0.4,0.2-0.8,0.5-1.3,0.7c-0.2,0.1-0.4-0.3-0.4-0.5c0.1-0.6,0.6-0.9,1.1-1.1C34.9,27.6,35.1,28.1,35.2,28.6
						L35.2,28.6z"/>
				</g>
				<g>
					<path d="M34.9,30.5c-0.5,0.1-0.7-0.2-0.7-0.4c-0.1-0.7,0.5-0.7,1-0.9c0.4-0.1,0.5,0.2,0.5,0.5C35.8,30.4,35.1,30.2,34.9,30.5
						L34.9,30.5z"/>
				</g>
				<g>
					<path d="M33.7,32.6c0-0.1,0-0.2,0-0.3C33.7,32.4,33.7,32.5,33.7,32.6z"/>
				</g>
				<g>
					<path class="st0" d="M33.4,25.8c-0.3,0.6-1.1,0.8-1.3,1.4c-0.4,0-0.5-0.3-0.5-0.5c0-0.8,0.5-1.3,1.1-1.6
						C33,25.1,33.5,25.6,33.4,25.8z"/>
				</g>
				<g>
					<path class="st0" d="M34.4,27c-0.3,0.5-0.8,0.9-1.3,1.4c-0.3-0.3-0.7-0.5-0.6-0.7c0.1-0.7,0.7-1.1,1.2-1.3
						C34.1,26.2,34.5,26.9,34.4,27L34.4,27z"/>
				</g>
				<g>
					<path class="st0" d="M35.2,28.6c-0.4,0.2-0.8,0.5-1.3,0.7c-0.2,0.1-0.4-0.3-0.4-0.5c0.1-0.6,0.6-0.9,1.1-1.1
						C34.9,27.6,35.1,28.1,35.2,28.6L35.2,28.6z"/>
				</g>
				<g>
					<path class="st0" d="M34.9,30.5c-0.5,0.1-0.7-0.2-0.7-0.4c-0.1-0.7,0.5-0.7,1-0.9c0.4-0.1,0.5,0.2,0.5,0.5
						C35.8,30.4,35.1,30.2,34.9,30.5L34.9,30.5z"/>
				</g>
			</g>
			<g>
				<path d="M33.7,32.3c0,0.1,0,0.2,0,0.3C33.7,32.5,33.7,32.4,33.7,32.3z M36.1,37.6c0.2-0.1,0.4-0.1,0.6-0.2
					C36.5,37.4,36.3,37.5,36.1,37.6z"/>
			</g>
		</g>
	</g>
</g>
</svg>
